# Blender v2.91.2 OBJ File: 'wall.blend'
# www.blender.org
mtllib wall.mtl
o Cube
v 20.000000 20.000000 -3.057143
v 20.000000 0.000000 -2.057143
v 20.000000 20.000000 3.057143
v 20.000000 0.000000 2.057143
v -20.000000 20.000000 -3.057143
v -20.000000 0.000000 -2.057143
v -20.000000 20.000000 3.057143
v -20.000000 0.000000 2.057143
v 20.000000 15.000000 2.057143
v -20.000000 15.000000 2.057143
v 20.000000 15.000000 -2.057143
v -20.000000 15.000000 -2.057143
v -16.000000 20.000000 -3.057143
v -16.000000 20.000000 3.057143
v -16.000000 0.000000 0.457143
v -16.000000 0.000000 -0.457143
v -16.000000 15.000000 -0.457143
v -16.000000 15.000000 0.457143
v -1.600000 0.000000 2.057143
v -1.600000 0.000000 -2.057143
v -1.600000 20.000000 3.057143
v -1.600000 15.000000 2.057143
v -1.600000 20.000000 -3.057143
v -1.600000 15.000000 -2.057143
v 16.000000 20.000000 -3.057143
v 16.000000 20.000000 3.057143
v 16.000000 0.000000 0.457143
v 16.000000 0.000000 -0.457143
v 16.000000 15.000000 -0.457143
v 16.000000 15.000000 0.457143
v -17.400000 20.000000 -3.057143
v -17.400000 20.000000 3.057143
v 1.600000 0.000000 2.057143
v -17.400000 15.000000 2.057143
v -17.400000 0.000000 2.057143
v 1.600000 0.000000 -2.057143
v -17.400000 15.000000 -2.057143
v -17.400000 0.000000 -2.057143
v -3.040000 20.000000 -3.057143
v -3.040000 20.000000 3.057143
v -3.040000 15.000000 0.457143
v -3.040000 0.000000 0.457143
v -3.040000 15.000000 -0.457143
v -3.040000 0.000000 -0.457143
v -20.000000 16.500000 2.057143
v -20.000000 16.500000 -2.057143
v -16.000000 16.500000 -2.057143
v -16.000000 16.500000 2.057143
v 1.600000 20.000000 3.057143
v 1.600000 15.000000 2.057143
v 1.600000 20.000000 -3.057143
v 1.600000 15.000000 -2.057143
v -1.600000 16.500000 2.057143
v -1.600000 16.500000 -2.057143
v -17.400000 16.500000 -2.057143
v -17.400000 16.500000 2.057143
v 17.400000 20.000000 -3.057143
v -3.040000 16.500000 -2.057143
v 17.400000 20.000000 3.057143
v -3.040000 16.500000 2.057143
v 0.000000 20.000000 -3.057143
v 0.000000 20.000000 3.057143
v 0.000000 15.000000 2.057143
v 0.000000 0.000000 2.057143
v 0.000000 15.000000 -2.057143
v 0.000000 0.000000 -2.057143
v 0.000000 16.500000 -2.057143
v 0.000000 16.500000 2.057143
v 0.000000 23.000000 3.057143
v 0.000000 23.000000 -3.057143
v 17.400000 15.000000 2.057143
v 17.400000 0.000000 2.057143
v 17.400000 15.000000 -2.057143
v 17.400000 0.000000 -2.057143
v 3.040000 20.000000 -3.057143
v 3.040000 20.000000 3.057143
v 3.040000 15.000000 0.457143
v 3.040000 0.000000 0.457143
v 3.040000 15.000000 -0.457143
v 3.040000 0.000000 -0.457143
v 20.000000 16.500000 2.057143
v 20.000000 16.500000 -2.057143
v 16.000000 16.500000 -2.057143
v 16.000000 16.500000 2.057143
v 1.600000 16.500000 2.057143
v 1.600000 16.500000 -2.057143
v 17.400000 16.500000 -2.057143
v 17.400000 16.500000 2.057143
v 3.040000 16.500000 -2.057143
v 3.040000 16.500000 2.057143
v 17.400000 23.000000 -3.057143
v 17.400000 23.000000 3.057143
v -17.400000 23.000000 -3.057143
v -17.400000 23.000000 3.057143
v 20.000000 23.000000 -3.057143
v 3.040000 23.000000 -3.057143
v 16.000000 23.000000 -3.057143
v -20.000000 23.000000 -3.057143
v -3.040000 23.000000 -3.057143
v -16.000000 23.000000 -3.057143
v -1.600000 23.000000 -3.057143
v -22.000000 0.000000 0.000000
v -22.000000 15.000000 0.000000
v -22.000000 20.000000 0.000000
v 1.600000 23.000000 -3.057143
v 0.000000 22.000000 0.000000
v 0.000000 0.000000 0.000000
v 22.000000 0.000000 0.000000
v 22.000000 15.000000 0.000000
v 22.000000 20.000000 0.000000
v 20.000000 23.000000 3.057143
v 16.000000 0.000000 0.000000
v -20.000000 23.000000 3.057143
v -16.000000 0.000000 0.000000
v -1.600000 0.000000 0.000000
v -3.040000 23.000000 3.057143
v -17.400000 0.000000 0.000000
v -16.000000 23.000000 3.057143
v -1.600000 23.000000 3.057143
v -3.040000 0.000000 0.000000
v -22.000000 16.500000 0.000000
v -22.000000 22.000000 0.000000
v -16.000000 22.000000 0.000000
v -1.600000 22.000000 0.000000
v -17.400000 22.000000 0.000000
v -3.040000 22.000000 0.000000
v 1.600000 0.000000 0.000000
v 3.040000 23.000000 3.057143
v 17.400000 0.000000 0.000000
v 16.000000 23.000000 3.057143
v 0.000000 0.000000 -1.028571
v 1.600000 23.000000 3.057143
v 3.040000 0.000000 0.000000
v 0.000000 22.000000 -1.528571
v 22.000000 16.500000 0.000000
v 22.000000 22.000000 0.000000
v 16.000000 22.000000 0.000000
v 1.600000 22.000000 0.000000
v 17.400000 22.000000 0.000000
v 3.040000 22.000000 0.000000
v -22.000000 0.000000 -1.028571
v -22.000000 20.000000 -1.528571
v -16.000000 0.000000 -0.228571
v -1.600000 0.000000 -1.028571
v -22.000000 22.000000 -1.528571
v -16.000000 22.000000 -1.528571
v -3.040000 0.000000 -0.228571
v -17.400000 22.000000 -1.528571
v -3.040000 22.000000 -1.528571
v -1.600000 22.000000 -1.528571
v -22.000000 16.500000 -1.028571
v -17.400000 0.000000 -1.028571
v -22.000000 15.000000 -1.028571
v 22.000000 0.000000 -1.028571
v 22.000000 20.000000 -1.528571
v 16.000000 0.000000 -0.228571
v 0.000000 0.000000 1.028571
v 1.600000 0.000000 -1.028571
v 22.000000 22.000000 -1.528571
v 0.000000 22.000000 1.528571
v 16.000000 22.000000 -1.528571
v 3.040000 0.000000 -0.228571
v 17.400000 22.000000 -1.528571
v 3.040000 22.000000 -1.528571
v 1.600000 22.000000 -1.528571
v 22.000000 16.500000 -1.028571
v 17.400000 0.000000 -1.028571
v -22.000000 0.000000 1.028571
v -22.000000 20.000000 1.528571
v -16.000000 0.000000 0.228571
v -1.600000 0.000000 1.028571
v -22.000000 22.000000 1.528571
v -16.000000 22.000000 1.528571
v -3.040000 0.000000 0.228571
v -17.400000 22.000000 1.528571
v -3.040000 22.000000 1.528571
v -1.600000 22.000000 1.528571
v -22.000000 16.500000 1.028571
v -17.400000 0.000000 1.028571
v -22.000000 15.000000 1.028571
v 22.000000 15.000000 -1.028571
v 22.000000 0.000000 1.028571
v 22.000000 20.000000 1.528571
v 16.000000 0.000000 0.228571
v 1.600000 0.000000 1.028571
v 22.000000 22.000000 1.528571
v 16.000000 22.000000 1.528571
v 3.040000 0.000000 0.228571
v 17.400000 22.000000 1.528571
v 3.040000 22.000000 1.528571
v 1.600000 22.000000 1.528571
v 22.000000 16.500000 1.028571
v 17.400000 0.000000 1.028571
v 22.000000 15.000000 1.028571
vt 0.715146 0.628099
vt 0.715146 0.413885
vt 0.764598 0.413885
vt 0.764598 0.628099
vt 0.273935 0.099174
vt 0.273935 0.076033
vt 0.332847 0.076033
vt 0.332847 0.099174
vt 0.916664 0.651239
vt 0.903440 0.628099
vt 0.907219 0.628099
vt 0.933665 0.651239
vt 0.789863 0.363636
vt 0.764597 0.363636
vt 0.764597 0.337191
vt 0.789863 0.337191
vt 0.247260 0.413885
vt 0.273935 0.413885
vt 0.273935 0.628099
vt 0.247260 0.628099
vt 0.815129 0.313389
vt 0.815129 0.099174
vt 0.840394 0.099174
vt 0.840394 0.313389
vt 0.715146 0.651239
vt 0.764598 0.651239
vt 0.715146 0.390083
vt 0.715146 0.363636
vt 0.764598 0.363636
vt 0.764598 0.390083
vt 0.384248 0.363636
vt 0.384248 0.337191
vt 0.631508 0.337191
vt 0.631508 0.363636
vt 0.656234 0.628099
vt 0.656234 0.651239
vt 0.273935 0.337191
vt 0.273935 0.313389
vt 0.332847 0.313389
vt 0.332847 0.337191
vt 0.000000 0.313389
vt 0.000000 0.099174
vt 0.247260 0.099174
vt 0.247260 0.313389
vt 0.899662 0.628099
vt 0.895885 0.628099
vt 0.895885 0.413885
vt 0.899662 0.413885
vt 0.382299 0.099174
vt 0.382299 0.313389
vt 0.631508 0.651239
vt 0.656234 0.694214
vt 0.631508 0.694214
vt 0.273935 0.033058
vt 0.272682 0.000000
vt 0.330985 0.000000
vt 0.332847 0.033058
vt 0.249209 0.076033
vt 0.249209 0.033058
vt 0.052893 0.752066
vt 0.026446 0.752066
vt 0.026446 0.727272
vt 0.656234 0.363636
vt 0.656234 0.390083
vt 0.895885 0.099174
vt 0.895885 0.313389
vt 0.892107 0.313389
vt 0.892107 0.099174
vt 0.273935 0.363636
vt 0.332847 0.363636
vt 0.273935 0.390083
vt 0.332847 0.390083
vt 0.332847 0.413885
vt 0.789863 0.313389
vt 0.789863 0.099174
vt 0.899662 0.337191
vt 0.916664 0.337191
vt 0.916664 0.363636
vt 0.899662 0.363636
vt 0.052893 0.999999
vt 0.052893 0.752066
vt 0.079339 0.752066
vt 0.079339 0.999999
vt 0.882661 0.390083
vt 0.899662 0.390083
vt 0.916664 0.727272
vt 0.933665 0.694214
vt 0.382299 0.076033
vt 0.656234 0.337191
vt 0.715146 0.337191
vt 0.382299 0.390083
vt 0.382299 0.413885
vt 0.815129 0.390083
vt 0.815129 0.413885
vt 0.789863 0.413885
vt 0.789863 0.390083
vt 0.273935 0.694214
vt 0.332847 0.694214
vt 0.330985 0.727272
vt 0.272682 0.727272
vt 0.789863 0.076033
vt 0.815129 0.076033
vt 0.975932 0.611570
vt 0.975932 0.636364
vt 0.958931 0.636364
vt 0.958931 0.611570
vt 0.899662 0.651239
vt 0.026446 0.999999
vt 0.000000 0.999999
vt 0.000000 0.752066
vt 0.026446 0.752066
vt 0.382299 0.313389
vt 0.382299 0.099174
vt 0.629558 0.099174
vt 0.629558 0.313389
vt 0.656234 0.413885
vt 0.382299 0.413885
vt 0.629558 0.413885
vt 0.629558 0.628099
vt 0.382299 0.628099
vt 0.764598 0.337191
vt 0.882661 0.727272
vt 0.865660 0.694214
vt 0.865660 0.651239
vt 0.882661 0.651239
vt 0.713284 0.000000
vt 0.746251 0.000000
vt 0.764598 0.033058
vt 0.715146 0.033058
vt 0.713283 0.727272
vt 0.715146 0.694214
vt 0.764598 0.694214
vt 0.746251 0.727272
vt 0.840394 0.413885
vt 0.865660 0.413885
vt 0.865660 0.628099
vt 0.840394 0.628099
vt 0.631508 0.390083
vt 0.382299 0.033058
vt 0.764597 0.313389
vt 0.764597 0.099174
vt 0.764597 0.076033
vt 0.941929 0.363636
vt 0.958931 0.363636
vt 0.941929 0.611570
vt 0.882661 0.337191
vt 0.882661 0.363636
vt 0.865660 0.363636
vt 0.865660 0.337191
vt 0.249209 0.363636
vt 0.249209 0.390083
vt 0.249209 0.337191
vt 0.382299 0.337191
vt 0.382299 0.363636
vt 0.332847 0.628099
vt 0.916664 0.000000
vt 0.933665 0.033058
vt 0.933665 0.076033
vt 0.916664 0.076033
vt 0.656234 0.099174
vt 0.656234 0.313389
vt 0.764597 0.033058
vt 0.789863 0.000000
vt 0.958931 0.330579
vt 0.958931 0.363636
vt 0.933665 0.363636
vt 0.933665 0.330579
vt 0.892107 0.628099
vt 0.907219 0.099174
vt 0.903441 0.099174
vt 0.654980 0.727272
vt 0.001949 0.363636
vt 0.001949 0.390083
vt 0.815129 0.628099
vt 0.273935 0.651239
vt 0.332847 0.651239
vt 0.789863 0.628099
vt 0.975932 0.000000
vt 0.975932 0.247934
vt 0.958931 0.247934
vt 0.958931 0.000000
vt 0.079339 0.999999
vt 0.079339 0.752066
vt 0.105785 0.752066
vt 0.105785 0.999999
vt 0.840394 0.076033
vt 0.865660 0.076033
vt 0.865660 0.099174
vt 0.903441 0.413885
vt 0.907219 0.413885
vt 0.916664 0.390083
vt 0.892107 0.413885
vt 0.865660 0.390083
vt 0.132231 0.999999
vt 0.105785 0.999999
vt 0.105785 0.752066
vt 0.132231 0.752066
vt 0.158678 0.999999
vt 0.132231 0.999999
vt 0.132231 0.752066
vt 0.158678 0.752066
vt 0.975932 0.363636
vt 0.840394 0.651239
vt 0.865660 0.651239
vt 0.865660 0.694214
vt 0.840394 0.727272
vt 0.764597 0.628099
vt 0.764597 0.413885
vt 0.764598 0.076033
vt 0.715146 0.076033
vt 0.000000 0.413885
vt 0.000000 0.628099
vt 0.865660 0.313389
vt 0.840394 0.390083
vt 0.815129 0.363636
vt 0.815129 0.337191
vt 0.840394 0.337191
vt 0.840394 0.363636
vt 0.764597 0.390083
vt 0.789863 0.651239
vt 0.789863 0.727272
vt 0.764597 0.694214
vt 0.764597 0.651239
vt 0.384248 0.033058
vt 0.382995 0.000000
vt 0.630255 0.000000
vt 0.631508 0.033058
vt 0.656234 0.033058
vt 0.654981 0.000000
vt 0.249209 0.651239
vt 0.158678 0.999999
vt 0.158678 0.752066
vt 0.185124 0.752066
vt 0.185124 0.999999
vt 0.840394 0.000000
vt 0.865660 0.033058
vt 0.899662 0.313389
vt 0.715146 0.313389
vt 0.865660 0.337191
vt 0.631508 0.076033
vt 0.656234 0.076033
vt 0.001949 0.033058
vt 0.000696 0.000000
vt 0.247956 0.000000
vt 0.211570 0.999999
vt 0.185124 0.999999
vt 0.185124 0.752066
vt 0.211570 0.752066
vt 0.715146 0.099174
vt 0.815129 0.651239
vt 0.815129 0.727272
vt 0.001949 0.651239
vt 0.249209 0.694214
vt 0.001949 0.694214
vt 0.865660 0.363636
vt 0.247956 0.727272
vt 0.026446 0.999999
vt 0.052893 0.999999
vt 0.958931 0.694215
vt 0.984196 0.694215
vt 0.984196 0.727273
vt 0.958931 0.727273
vt 0.899662 0.076033
vt 0.899662 0.099174
vt 0.882661 0.076033
vt 0.975932 0.272727
vt 0.958931 0.272727
vt 0.941929 0.272727
vt 0.132231 0.727272
vt 0.764598 0.099174
vt 0.001949 0.076033
vt 0.899662 0.727272
vt 0.382299 0.628099
vt 0.382299 0.651239
vt 0.815129 0.000000
vt 0.933665 0.390083
vt 0.903441 0.313389
vt 0.907219 0.313389
vt 0.933665 0.337191
vt 0.382299 0.694214
vt 0.363953 0.727272
vt 0.899662 0.000000
vt 0.384248 0.694214
vt 0.630255 0.727272
vt 0.382995 0.727272
vt 0.941929 0.636364
vt 0.764598 0.313389
vt 0.984196 0.330579
vt 0.984196 0.363636
vt 0.933665 0.694215
vt 0.941929 0.247934
vt 0.363953 0.000000
vt 0.933665 0.363636
vt 0.079339 0.727272
vt 0.001949 0.337191
vt 0.384248 0.076033
vt 0.865660 0.390083
vt 0.865660 0.076033
vt 0.384248 0.651239
vt 0.941929 0.000000
vt 0.000696 0.727272
vt 0.185124 0.727272
vt 0.384248 0.390083
vt 0.882661 0.000000
vt 0.933665 0.727273
vt 0.865660 0.033058
vt 0.158678 0.727272
vt 0.000000 0.727272
vt 0.158678 0.727272
vt 0.105785 0.727272
vn 0.0000 0.0000 1.0000
vn 0.0000 -0.2747 -0.9615
vn 0.0000 -1.0000 0.0000
vn 0.0000 0.8368 0.5475
vn 0.0000 -0.7295 -0.6839
vn 0.0000 1.0000 0.0000
vn 0.0000 -0.2747 0.9615
vn 0.0000 0.0000 -1.0000
vn -0.5301 -0.1777 -0.8291
vn 0.6051 -0.5808 -0.5445
vn -0.7526 0.0000 -0.6585
vn 0.5301 -0.1777 -0.8291
vn -1.0000 0.0000 0.0000
vn 0.7526 0.0000 -0.6585
vn 0.6072 0.0000 0.7945
vn -0.6072 0.0000 0.7945
vn 0.0000 0.8368 -0.5475
vn 0.0000 -0.7295 0.6839
vn 1.0000 0.0000 0.0000
vn -0.5301 -0.1777 0.8291
vn 0.7526 0.0000 0.6585
vn 0.7433 0.0000 0.6690
vn -0.7433 0.0000 -0.6690
vn 0.4573 0.0000 0.8893
vn 0.5301 -0.1777 0.8291
vn -0.7433 0.0000 0.6690
vn -0.4573 0.0000 -0.8893
vn -0.7526 0.0000 0.6585
vn 0.4573 0.0000 -0.8893
vn 0.7433 0.0000 -0.6690
vn 0.6051 -0.5808 0.5445
vn 0.6072 0.0000 -0.7945
vn -0.4573 0.0000 0.8893
vn -0.6072 0.0000 -0.7945
vn -0.6158 -0.5748 -0.5389
vn -0.6158 -0.5748 0.5389
vn -0.6051 -0.5808 -0.5445
vn 0.6158 -0.5748 -0.5389
vn -0.6051 -0.5808 0.5445
vn 0.6158 -0.5748 0.5389
usemtl Material
s off
f 14/1/1 40/2/1 116/3/1 118/4/1
f 47/5/2 55/6/2 31/7/2 13/8/2
f 179/9/3 170/10/3 15/11/3 35/12/3
f 134/13/4 70/14/4 101/15/4 150/16/4
f 79/17/5 89/18/5 83/19/5 29/20/5
f 126/21/6 123/22/6 173/23/6 176/24/6
f 32/25/1 14/1/1 118/4/1 94/26/1
f 21/27/1 62/28/1 69/29/1 119/30/1
f 64/31/1 33/32/1 50/33/1 63/34/1
f 48/35/7 14/1/7 32/25/7 56/36/7
f 54/37/2 58/38/2 39/39/2 23/40/2
f 44/41/8 16/42/8 17/43/8 43/44/8
f 114/45/3 143/46/3 147/47/3 120/48/3
f 13/8/8 100/49/8 99/50/8 39/39/8
f 34/51/1 56/36/1 45/52/1 10/53/1
f 46/54/9 151/55/9 142/56/9 5/57/9
f 37/58/8 12/59/8 46/54/8 55/6/8
f 43/44/5 17/43/5 47/5/5 58/38/5
f 79/60/10 52/61/10 89/62/10
f 68/63/7 62/28/7 21/27/7 53/64/7
f 156/65/3 162/66/3 80/67/3 28/68/3
f 67/69/2 54/37/2 23/40/2 61/70/2
f 86/71/2 51/72/2 75/73/2 89/18/2
f 126/21/6 149/74/6 146/75/6 123/22/6
f 127/76/3 185/77/3 157/78/3 107/79/3
f 28/80/11 29/81/11 73/82/11 74/83/11
f 120/48/3 147/47/3 144/84/3 115/85/3
f 168/86/3 179/9/3 35/12/3 8/87/3
f 31/7/8 93/88/8 100/49/8 13/8/8
f 68/63/7 85/89/7 49/90/7 62/28/7
f 75/73/8 51/72/8 105/91/8 96/92/8
f 138/93/6 140/94/6 164/95/6 165/96/6
f 82/97/12 1/98/12 155/99/12 166/100/12
f 123/22/6 146/75/6 148/101/6 125/102/6
f 180/103/13 178/104/13 121/105/13 103/106/13
f 117/107/3 114/45/3 170/10/3 179/9/3
f 16/108/14 38/109/14 37/110/14 17/111/14
f 78/112/1 27/113/1 30/114/1 77/115/1
f 53/64/7 21/27/7 40/2/7 60/116/7
f 42/117/1 41/118/1 18/119/1 15/120/1
f 49/90/1 132/121/1 69/29/1 62/28/1
f 141/122/3 6/123/3 38/124/3 152/125/3
f 183/126/15 186/127/15 111/128/15 3/129/15
f 169/130/16 7/131/16 113/132/16 172/133/16
f 190/134/17 128/135/17 130/136/17 187/137/17
f 22/138/1 53/64/1 60/116/1
f 5/57/8 98/139/8 93/88/8 31/7/8
f 149/74/4 99/140/4 100/141/4 146/75/4
f 146/75/4 100/141/4 93/142/4 148/101/4
f 141/143/13 102/144/13 103/106/13 153/145/13
f 158/146/3 131/147/3 66/148/3 36/149/3
f 65/150/8 67/69/8 86/71/8 52/151/8
f 65/150/8 24/152/8 54/37/8 67/69/8
f 41/118/18 60/116/18 48/35/18 18/119/18
f 39/39/8 99/50/8 101/153/8 23/40/8
f 23/40/8 101/153/8 70/154/8 61/70/8
f 24/152/8 58/38/8 54/37/8
f 56/36/7 32/25/7 7/131/7 45/52/7
f 89/18/2 75/73/2 25/155/2 83/19/2
f 55/6/8 47/5/8 37/58/8
f 150/16/4 101/15/4 99/140/4 149/74/4
f 182/156/3 4/157/3 72/158/3 193/159/3
f 77/115/18 30/114/18 84/160/18 90/161/18
f 148/101/4 93/142/4 98/162/4 145/163/4
f 110/164/19 136/165/19 186/166/19 183/167/19
f 152/125/3 38/124/3 16/168/3 143/46/3
f 193/159/3 72/158/3 27/169/3 184/170/3
f 45/52/20 7/131/20 169/130/20 178/171/20
f 66/172/8 65/150/8 52/151/8 36/173/8
f 140/94/6 190/134/6 187/137/6 137/174/6
f 87/175/2 57/176/2 1/98/2 82/97/2
f 140/94/6 137/174/6 161/177/6 164/95/6
f 154/178/19 181/179/19 109/180/19 108/181/19
f 15/182/21 18/183/21 34/184/21 35/185/21
f 173/23/17 175/186/17 94/187/17 118/188/17
f 170/10/3 174/189/3 42/190/3 15/11/3
f 120/48/3 115/85/3 171/191/3 174/189/3
f 147/47/3 44/192/3 20/193/3 144/84/3
f 33/194/22 78/195/22 77/196/22 50/197/22
f 20/198/23 44/199/23 43/200/23 24/201/23
f 168/202/13 180/103/13 103/106/13 102/144/13
f 123/22/6 125/102/6 175/186/6 173/23/6
f 63/34/1 68/63/1 53/64/1 22/138/1
f 63/34/1 50/33/1 85/89/1 68/63/1
f 7/131/1 32/25/1 94/26/1 113/132/1
f 67/69/2 61/70/2 51/72/2 86/71/2
f 189/203/17 92/204/17 111/205/17 186/206/17
f 164/95/4 161/177/4 97/207/4 96/208/4
f 40/2/1 21/27/1 119/30/1 116/3/1
f 3/129/1 111/128/1 92/209/1 59/210/1
f 80/211/8 79/17/8 29/20/8 28/212/8
f 176/24/17 173/23/17 118/188/17 116/213/17
f 138/93/6 191/214/6 190/134/6 140/94/6
f 106/215/6 124/216/6 177/217/6 160/218/6
f 165/96/4 164/95/4 96/208/4 105/219/4
f 50/33/1 90/161/1 85/89/1
f 163/220/4 159/221/4 95/222/4 91/223/4
f 56/36/1 34/51/1 48/35/1
f 4/224/24 182/225/24 194/226/24 9/227/24
f 81/228/25 192/229/25 183/126/25 3/129/25
f 87/175/8 73/230/8 83/19/8
f 19/231/26 22/232/26 41/233/26 42/234/26
f 175/186/17 172/235/17 113/236/17 94/187/17
f 133/237/3 127/76/3 158/146/3 162/66/3
f 85/89/7 90/161/7 76/238/7 49/90/7
f 177/217/17 176/24/17 116/213/17 119/239/17
f 106/215/6 134/13/6 150/16/6 124/216/6
f 71/240/1 9/227/1 81/228/1 88/241/1
f 6/242/27 141/243/27 153/244/27 12/59/27
f 106/215/6 138/93/6 165/96/6 134/13/6
f 88/241/7 81/228/7 3/129/7 59/210/7
f 27/245/28 72/246/28 71/247/28 30/248/28
f 90/161/7 84/160/7 26/249/7 76/238/7
f 139/250/6 189/203/6 186/206/6 136/251/6
f 74/252/8 73/230/8 11/253/8 2/254/8
f 160/218/17 177/217/17 119/239/17 69/255/17
f 162/66/3 158/146/3 36/149/3 80/67/3
f 11/253/29 82/97/29 166/100/29 181/256/29
f 73/230/8 87/175/8 82/97/8 11/253/8
f 36/257/30 52/61/30 79/60/30 80/258/30
f 104/259/13 169/260/13 172/261/13 122/262/13
f 129/263/3 193/159/3 184/170/3 112/264/3
f 9/227/24 194/226/24 192/229/24 81/228/24
f 52/151/8 86/71/8 89/18/8
f 55/6/2 46/54/2 5/57/2 31/7/2
f 115/85/3 144/84/3 131/147/3 107/79/3
f 83/19/2 25/155/2 57/176/2 87/175/2
f 129/263/3 112/264/3 156/65/3 167/265/3
f 181/179/19 166/266/19 135/267/19 109/180/19
f 192/268/19 135/267/19 110/164/19 183/167/19
f 77/196/31 90/269/31 50/197/31
f 114/45/3 120/48/3 174/189/3 170/10/3
f 115/85/3 107/79/3 157/78/3 171/191/3
f 51/72/8 61/70/8 70/154/8 105/91/8
f 60/116/7 40/2/7 14/1/7 48/35/7
f 59/210/1 92/209/1 130/270/1 26/249/1
f 38/271/8 6/242/8 12/59/8 37/58/8
f 134/13/4 165/96/4 105/219/4 70/14/4
f 102/272/3 117/107/3 179/9/3 168/86/3
f 57/176/8 25/155/8 97/273/8 91/274/8
f 125/102/6 122/275/6 172/235/6 175/186/6
f 174/189/3 171/191/3 19/276/3 42/190/3
f 188/277/3 78/278/3 33/279/3 185/77/3
f 155/99/32 1/98/32 95/280/32 159/281/32
f 108/282/3 182/156/3 193/159/3 129/263/3
f 137/174/6 139/250/6 163/220/6 161/177/6
f 139/250/6 136/251/6 159/221/6 163/220/6
f 8/283/33 10/53/33 180/284/33 168/285/33
f 84/160/7 88/241/7 59/210/7 26/249/7
f 153/145/13 103/106/13 121/105/13 151/286/13
f 144/84/3 20/193/3 66/148/3 131/147/3
f 26/249/1 130/270/1 128/287/1 76/238/1
f 110/164/19 155/288/19 159/289/19 136/165/19
f 151/286/13 121/105/13 104/259/13 142/290/13
f 166/266/19 155/288/19 110/164/19 135/267/19
f 194/291/19 109/180/19 135/267/19 192/268/19
f 142/56/34 145/292/34 98/139/34 5/57/34
f 171/191/3 157/78/3 64/293/3 19/276/3
f 1/98/8 57/176/8 91/274/8 95/280/8
f 73/82/35 29/81/35 83/294/35
f 58/38/2 47/5/2 13/8/2 39/39/2
f 124/216/6 126/21/6 176/24/6 177/217/6
f 143/46/3 16/168/3 44/192/3 147/47/3
f 66/172/8 20/295/8 24/152/8 65/150/8
f 72/296/1 4/224/1 9/227/1 71/240/1
f 12/59/27 153/244/27 151/55/27 46/54/27
f 184/170/3 27/169/3 78/278/3 188/277/3
f 133/237/3 188/277/3 185/77/3 127/76/3
f 178/104/13 169/260/13 104/259/13 121/105/13
f 10/53/33 45/52/33 178/171/33 180/284/33
f 127/76/3 107/79/3 131/147/3 158/146/3
f 187/137/17 130/136/17 92/204/17 189/203/17
f 191/214/17 132/297/17 128/135/17 190/134/17
f 102/272/3 141/122/3 152/125/3 117/107/3
f 125/102/6 148/101/6 145/163/6 122/275/6
f 167/265/3 156/65/3 28/68/3 74/298/3
f 35/299/1 34/51/1 10/53/1 8/283/1
f 182/300/19 108/181/19 109/180/19 194/291/19
f 106/215/6 160/218/6 191/214/6 138/93/6
f 137/174/6 187/137/6 189/203/6 139/250/6
f 88/241/1 84/160/1 71/240/1
f 2/254/29 11/253/29 181/256/29 154/301/29
f 160/218/17 69/255/17 132/297/17 191/214/17
f 76/238/1 128/287/1 132/121/1 49/90/1
f 71/247/36 84/302/36 30/248/36
f 64/31/1 63/34/1 22/138/1 19/303/1
f 124/216/6 150/16/6 149/74/6 126/21/6
f 108/282/3 129/263/3 167/265/3 154/304/3
f 112/264/3 184/170/3 188/277/3 133/237/3
f 117/107/3 152/125/3 143/46/3 114/45/3
f 104/259/13 122/262/13 145/305/13 142/290/13
f 185/77/3 33/279/3 64/293/3 157/78/3
f 154/304/3 167/265/3 74/298/3 2/306/3
f 112/264/3 133/237/3 162/66/3 156/65/3
f 43/200/37 58/307/37 24/201/37
f 37/110/38 47/308/38 17/111/38
f 161/177/4 163/220/4 91/223/4 97/207/4
f 25/155/8 75/73/8 96/92/8 97/273/8
f 41/233/39 22/232/39 60/309/39
f 34/184/40 18/183/40 48/310/40
