# Blender v2.91.2 OBJ File: 'space_ship_01.blend'
# www.blender.org
mtllib space_ship_01.mtl
o Cube
v -0.000000 0.259862 -1.030556
v -0.000000 -0.259862 -1.030556
v -0.000000 1.009724 -1.555555
v 1.039447 -0.000000 -1.030556
v -0.000000 -0.519724 -0.785556
v 0.000000 0.000000 3.624445
v 0.000000 0.739793 0.316945
v 2.078894 -0.000000 -0.785556
v -1.039447 -0.000000 -1.030556
v 0.000000 -0.129931 2.521945
v 0.000000 0.129931 2.521945
v -2.078894 -0.000000 -0.785555
v 1.039447 -0.000000 1.419445
v -0.000000 0.000000 -1.030556
v 0.519724 -0.129931 -1.030556
v -0.000000 -0.389793 -1.153056
v -0.000000 0.389793 -1.153056
v 0.519724 0.129931 -1.030556
v -1.039447 -0.000000 1.419445
v 1.039447 -0.259862 -0.785556
v -0.519724 -0.129931 -1.030556
v 1.039447 0.259862 -0.785556
v 0.000000 -0.064965 3.073195
v 0.000000 0.264896 1.970695
v 0.519724 0.194896 0.868195
v -0.519724 0.129931 -1.030556
v -1.039447 -0.259862 -0.785555
v -1.039447 0.259862 -0.785555
v 0.519724 -0.194896 0.868195
v -0.519724 0.194896 0.868195
v 1.559171 -0.000000 -1.153056
v -0.000000 0.129931 -1.030556
v 0.389793 0.292344 -1.153056
v 0.779585 0.194896 -1.153056
v 0.779585 -0.194896 -1.153056
v -0.519723 -0.194896 0.868195
v -1.559171 -0.000000 -1.153055
v 0.779585 -0.064965 -1.030556
v -0.389793 0.292344 -1.153056
v 0.259862 0.432344 0.592570
v 0.000000 -0.194896 1.970695
v 0.000000 0.064965 3.073195
v -0.779585 0.194896 -1.153056
v -0.779585 -0.194896 -1.153056
v 0.779585 -0.097448 1.143820
v -0.779585 -0.064965 -1.030556
v 0.259862 0.194896 -1.030556
v -0.259862 0.432344 0.592570
v 1.559171 -0.129931 -0.785556
v 0.519724 0.529793 -1.065555
v -0.000000 -0.129931 -1.030556
v -0.779585 -0.097448 1.143820
v -0.000000 -0.657799 -0.534034
v 0.000000 -0.527868 0.629716
v 0.259862 0.064965 -1.030556
v 1.169378 -0.097448 -1.153056
v 0.000000 -0.332972 2.410342
v -0.259862 0.194896 -1.030556
v 0.779585 0.064965 -1.030556
v 0.519723 -0.389793 -0.785556
v 1.559171 0.129931 -0.785556
v 0.259862 -0.194896 -1.030556
v 0.779585 0.097448 1.143820
v 0.259862 -0.292345 0.592570
v 0.259862 -0.064965 -1.030556
v 1.169378 0.097448 -1.153056
v 0.389793 -0.292345 -1.153056
v 0.519724 -0.000000 -1.030556
v 0.388187 -0.597868 -0.954034
v 0.116938 -0.430420 1.043154
v -1.559171 -0.129931 -0.785555
v -0.519724 0.529793 -1.065555
v -0.259862 0.064965 -1.030556
v -1.169378 -0.097448 -1.153056
v -0.779585 0.064965 -1.030556
v -0.519724 -0.389793 -0.785556
v -1.559171 0.129931 -0.785555
v -0.259862 -0.194896 -1.030556
v -0.779585 0.097448 1.143820
v -0.259862 -0.292345 0.592570
v -0.259862 -0.064965 -1.030556
v -1.169378 0.097448 -1.153056
v -0.389793 -0.292345 -1.153056
v -0.519724 -0.000000 -1.030556
v -0.388187 -0.597868 -0.954034
v -0.116938 -0.430420 1.043154
vt 0.277495 0.627721
vt 0.277495 0.659868
vt 0.262367 0.688232
vt 0.262367 0.656086
vt 0.869357 0.499749
vt 0.944154 0.566503
vt 0.864215 0.726320
vt 0.247239 0.780890
vt 0.247239 0.748743
vt 0.262367 0.720379
vt 0.262367 0.752525
vt 0.237126 0.235775
vt 0.415840 0.061320
vt 0.389813 0.122639
vt 0.253319 0.279822
vt 0.203119 0.813672
vt 0.207449 0.978672
vt 0.182042 0.765212
vt 0.769626 0.508145
vt 0.793274 0.309383
vt 0.828744 0.298142
vt 0.816921 0.540975
vt 0.247239 0.716597
vt 0.247239 0.684450
vt 0.864215 0.286902
vt 0.864215 0.573804
vt 0.000000 0.770320
vt 0.080833 0.762181
vt 0.087149 0.805591
vt 0.099780 0.892413
vt 0.093465 0.849002
vt 0.110049 0.818906
vt 0.114259 0.847847
vt 0.058413 0.410230
vt 0.116826 0.437006
vt 0.973717 0.664672
vt 0.973717 0.907388
vt 0.950624 0.719015
vt 0.971086 0.499749
vt 0.955559 0.264205
vt 0.918073 0.300282
vt 0.923412 0.065039
vt 0.207449 0.756557
vt 0.225606 0.812743
vt 0.208287 0.976774
vt 0.977209 0.431844
vt 0.353211 0.828126
vt 0.307750 0.767446
vt 0.307750 0.719233
vt 0.353211 0.763842
vt 0.000000 0.383454
vt 0.220933 0.191727
vt 0.558452 0.388246
vt 0.500160 0.361125
vt 0.670364 0.208218
vt 0.687686 0.249434
vt 0.080632 0.466747
vt 0.036822 0.446665
vt 0.175238 0.463781
vt 0.168251 0.506910
vt 0.124441 0.486829
vt 0.247239 0.813036
vt 0.262367 0.784671
vt 0.093465 0.666586
vt 0.110049 0.697296
vt 0.105838 0.729161
vt 0.087149 0.714383
vt 0.609263 0.441109
vt 0.608221 0.462826
vt 0.564502 0.442486
vt 0.106096 0.935824
vt 0.118469 0.876787
vt 0.793823 0.581655
vt 0.758353 0.557033
vt 0.106096 0.570992
vt 0.118469 0.633567
vt 0.114259 0.665431
vt 0.099780 0.618789
vt 0.368804 0.570992
vt 0.382665 0.630578
vt 0.380066 0.659246
vt 0.364906 0.613995
vt 0.101628 0.761025
vt 0.105838 0.789966
vt 0.368804 0.935250
vt 0.364906 0.887188
vt 0.380066 0.841375
vt 0.382665 0.873416
vt 0.816921 0.110621
vt 0.840568 0.055311
vt 0.441867 0.285496
vt 0.402826 0.306102
vt 0.441867 0.000000
vt 0.907496 0.764887
vt 0.292623 0.599357
vt 0.292622 0.631503
vt 0.353211 0.635276
vt 0.307750 0.622809
vt 0.307750 0.574596
vt 0.353211 0.570993
vt 0.233651 0.490557
vt 0.212061 0.526992
vt 0.441867 0.334005
vt 0.520782 0.422146
vt 0.477062 0.401806
vt 0.722882 0.532410
vt 0.353211 0.699559
vt 0.307750 0.671021
vt 0.864215 0.000000
vt 0.277495 0.724161
vt 0.277495 0.692014
vt 0.292622 0.695796
vt 0.653041 0.167003
vt 0.247239 0.766326
vt 0.944154 0.801806
vt 0.247239 0.570992
vt 0.864215 0.100815
vt 0.971930 0.499749
vt 0.207449 0.570993
vt 0.361008 0.839126
vt 0.377467 0.809334
vt 0.999704 0.226629
vt 0.292622 0.663650
vt 0.441867 0.570992
vt 0.389813 0.550884
vt 0.357109 0.791065
vt 0.353211 0.743003
vt 0.372270 0.745251
vt 0.374869 0.777292
vt 0.363786 0.326707
vt 0.425118 0.724811
vt 0.400549 0.704081
vt 0.382665 0.659301
vt 0.414899 0.655274
vt 0.882047 0.931992
vt 0.363786 0.183959
vt 0.269512 0.323870
vt 0.475610 0.662043
vt 0.502917 0.581655
vt 0.502917 0.679637
vt 0.277495 0.756307
vt 0.944154 0.887452
vt 0.324745 0.347312
vt 0.307750 0.603139
vt 0.307750 0.635285
vt 0.307750 0.667432
vt 0.216017 0.588214
vt 0.999704 0.000000
vt 0.337759 0.530775
vt 0.285705 0.510666
vt 0.357109 0.700000
vt 0.374869 0.716583
vt 0.307750 0.570993
vt 0.441867 0.749417
vt 0.458738 0.581655
vt 0.458738 0.802046
vt 0.425118 0.570993
vt 0.377467 0.687914
vt 0.361008 0.656998
vt 0.885784 1.000000
vt 0.292623 0.727942
vt 0.167393 0.597187
vt 0.165351 0.625678
vt 0.118469 0.581789
vt 0.458738 0.634284
vt 0.475610 0.581655
vt 0.475610 0.802046
vt 0.553540 0.645947
vt 0.527796 0.624576
vt 0.553540 0.581655
vt 0.502917 0.626206
vt 0.527796 0.581655
vt 0.527796 0.649901
vt 0.176314 0.816925
vt 0.307750 0.699578
vt 0.579776 0.581655
vt 0.579776 0.639227
vt 0.553540 0.595590
vn -0.0000 0.0000 -1.0000
vn -0.6148 0.7806 0.1125
vn 0.2410 -0.9639 0.1136
vn 0.4056 -0.9086 0.0995
vn 0.2410 0.9639 0.1136
vn 0.1349 -0.5396 -0.8311
vn 0.1690 -0.6761 -0.7171
vn 0.8957 -0.4163 0.1565
vn 0.8473 -0.5197 0.1095
vn 0.5840 0.7999 0.1385
vn -0.8473 -0.5197 0.1095
vn 0.5362 0.8199 0.2007
vn -0.2294 -0.9177 -0.3244
vn -0.2410 0.9639 0.1136
vn 0.2294 -0.9177 -0.3244
vn -0.1690 -0.6761 -0.7171
vn -0.4376 0.5294 -0.7268
vn 0.2294 0.9177 -0.3244
vn 0.1690 0.6761 -0.7171
vn -0.1690 0.6761 -0.7171
vn -0.2410 -0.9639 0.1136
vn -0.6852 0.7129 0.1493
vn -0.2294 0.9177 -0.3244
vn -0.1349 -0.5396 -0.8311
vn -0.4056 -0.9086 0.0995
vn -0.5840 0.7999 0.1385
vn -0.8957 -0.4163 0.1565
vn 0.3871 0.9085 0.1573
vn 0.3384 -0.9328 0.1242
vn 0.6452 0.7344 0.2109
vn 0.4376 0.5294 -0.7268
vn -0.5362 0.8199 0.2007
vn -0.6469 -0.0743 -0.7589
vn 0.7550 -0.6285 0.1868
vn -0.7550 -0.6285 0.1868
vn 0.6148 0.7806 0.1125
vn 0.6852 0.7129 0.1493
vn -0.8895 0.4359 0.1369
vn 0.6469 -0.0743 -0.7589
vn -0.3871 0.9085 0.1573
vn -0.6452 0.7344 0.2109
vn 0.3596 -0.8180 -0.4490
vn 0.8895 0.4359 0.1369
vn -0.1707 0.6830 -0.7102
vn -0.3596 -0.8180 -0.4490
vn -0.3384 -0.9328 0.1242
vn 0.1707 0.6830 -0.7102
vn 0.2638 -0.9586 0.1070
vn -0.2638 -0.9586 0.1070
usemtl Material
s off
f 18/1/1 55/2/1 32/3/1 47/4/1
f 3/5/2 72/6/2 7/7/2
f 75/8/1 26/9/1 73/10/1 84/11/1
f 45/12/3 23/13/3 10/14/3 29/15/3
f 70/16/4 57/17/4 54/18/4
f 22/19/5 25/20/5 63/21/5 61/22/5
f 58/23/1 1/24/1 32/3/1
f 61/22/5 63/21/5 13/25/5 8/26/5
f 3/27/6 17/28/6 39/29/6
f 82/30/7 43/31/7 26/32/7 75/33/7
f 49/34/3 45/12/3 29/15/3 20/35/3
f 70/36/8 69/37/8 64/38/8
f 64/38/9 57/39/9 70/36/9
f 40/40/10 25/41/10 50/42/10
f 80/43/11 86/44/11 57/45/11
f 40/40/12 24/46/12 25/41/12
f 12/47/13 37/48/13 74/49/13 71/50/13
f 26/9/1 58/23/1 32/3/1 73/10/1
f 8/51/3 13/52/3 45/12/3 49/34/3
f 28/53/14 77/54/14 79/55/14 30/56/14
f 8/51/15 49/34/15 56/57/15 31/58/15
f 20/35/15 60/59/15 67/60/15 35/61/15
f 9/62/1 75/8/1 84/11/1 46/63/1
f 49/34/15 20/35/15 35/61/15 56/57/15
f 34/64/16 18/65/16 47/66/16 33/67/16
f 28/53/17 72/68/17 39/69/17 43/70/17
f 37/71/7 82/30/7 75/33/7 9/72/7
f 8/26/18 31/73/18 66/74/18 61/22/18
f 31/75/16 4/76/16 59/77/16 66/78/16
f 37/79/19 9/80/19 46/81/19 74/82/19
f 39/29/7 17/28/7 1/83/7 58/84/7
f 31/85/20 56/86/20 38/87/20 4/88/20
f 25/20/5 11/89/5 42/90/5 63/21/5
f 19/91/21 52/92/21 23/13/21 6/93/21
f 72/6/22 48/94/22 7/7/22
f 59/95/1 68/96/1 55/2/1 18/1/1
f 13/52/3 6/93/3 23/13/3 45/12/3
f 76/97/13 83/98/13 16/99/13 5/100/13
f 60/59/15 5/101/15 16/102/15 67/60/15
f 43/31/7 39/29/7 58/84/7 26/32/7
f 12/103/23 77/54/23 82/104/23 37/105/23
f 61/22/18 66/74/18 34/106/18 22/19/18
f 27/107/13 44/108/13 83/98/13 76/97/13
f 63/21/5 42/90/5 6/109/5 13/25/5
f 81/110/1 14/111/1 51/112/1
f 3/27/24 33/67/24 17/28/24
f 77/54/14 12/103/14 19/113/14 79/55/14
f 86/44/25 54/114/25 57/45/25
f 48/94/26 72/6/26 30/115/26
f 86/44/27 80/43/27 85/116/27
f 66/78/16 59/77/16 18/65/16 34/64/16
f 50/42/28 25/41/28 22/117/28
f 25/41/12 24/46/12 11/118/12
f 69/119/29 70/16/29 54/18/29
f 56/86/20 35/120/20 15/121/20 38/87/20
f 77/54/23 28/53/23 43/70/23 82/104/23
f 7/122/30 24/46/30 40/40/30
f 68/96/1 65/123/1 14/111/1 55/2/1
f 12/124/21 71/125/21 52/92/21 19/91/21
f 67/126/20 16/127/20 2/128/20 62/129/20
f 52/92/21 36/130/21 10/14/21 23/13/21
f 30/56/14 79/55/14 42/90/14 11/89/14
f 22/131/31 34/132/31 33/133/31 50/134/31
f 33/67/16 47/66/16 1/83/16 17/28/16
f 48/94/32 30/115/32 24/135/32
f 29/15/3 10/14/3 41/136/3 64/137/3
f 72/138/33 3/139/33 39/140/33
f 46/63/1 84/11/1 81/110/1 21/141/1
f 64/38/34 69/37/34 60/142/34
f 36/130/21 80/143/21 41/136/21 10/14/21
f 38/144/1 15/145/1 65/123/1 68/96/1
f 15/145/1 62/146/1 51/112/1 65/123/1
f 80/43/35 76/147/35 85/116/35
f 3/148/36 7/122/36 50/42/36
f 27/149/21 76/150/21 80/143/21 36/130/21
f 50/42/37 7/122/37 40/40/37
f 83/151/19 78/152/19 2/128/19 16/127/19
f 4/153/1 38/144/1 68/96/1 59/95/1
f 41/154/38 80/155/38 57/156/38
f 65/123/1 51/112/1 14/111/1
f 50/134/39 33/133/39 3/157/39
f 74/82/19 46/81/19 21/158/19 44/159/19
f 72/68/40 28/53/40 30/56/40
f 30/115/32 11/160/32 24/135/32
f 7/7/41 48/94/41 24/135/41
f 20/35/3 29/15/3 64/137/3 60/59/3
f 35/120/20 67/126/20 62/129/20 15/121/20
f 21/141/1 81/110/1 51/112/1 78/161/1
f 5/162/42 53/163/42 85/164/42
f 73/10/1 32/3/1 14/111/1
f 41/165/43 57/166/43 64/167/43
f 60/168/44 69/169/44 5/170/44
f 44/159/19 21/158/19 78/152/19 83/151/19
f 5/171/45 69/172/45 53/173/45
f 85/164/46 54/18/46 86/174/46
f 78/161/1 51/112/1 2/175/1
f 76/176/47 5/177/47 85/178/47
f 84/11/1 73/10/1 14/111/1 81/110/1
f 71/50/13 74/49/13 44/108/13 27/107/13
f 71/125/21 27/149/21 36/130/21 52/92/21
f 79/55/14 19/113/14 6/109/14 42/90/14
f 55/2/1 14/111/1 32/3/1
f 47/4/1 32/3/1 1/24/1
f 62/146/1 2/175/1 51/112/1
f 53/163/48 69/119/48 54/18/48
f 53/163/49 54/18/49 85/164/49
