# Blender v2.91.2 OBJ File: 'Castle.blend'
# www.blender.org
mtllib Castle.mtl
o Cube
v 6.000001 9.000000 -6.000001
v 6.000001 9.000000 6.000001
v -6.000001 9.000000 -6.000001
v -6.000001 9.000000 6.000001
v -9.000002 0.000000 -9.000002
v -9.000002 0.000000 9.000002
v 9.000002 0.000000 -9.000002
v 9.000002 0.000000 9.000002
v -4.500001 9.000000 -6.000001
v -4.500001 9.000000 6.000001
v -6.750002 0.000000 -9.000002
v -6.750002 0.000000 9.000002
v -3.375001 9.000000 -4.500000
v -3.375001 9.000000 4.500000
v -2.522633 11.372621 -3.363511
v -2.522633 11.372621 3.363511
v 4.687501 9.000000 6.000001
v 7.031252 0.000000 9.000002
v 3.515626 9.000000 -4.500000
v 2.627743 11.372621 -3.363511
v 4.687501 9.000000 -6.000001
v 7.031252 0.000000 -9.000002
v 3.515625 9.000000 4.500000
v 2.627743 11.372621 3.363511
v -6.000001 9.000000 4.500001
v 6.000001 9.000000 4.500001
v -9.000002 0.000000 6.750002
v 9.000002 0.000000 6.750002
v 4.500000 9.000000 3.375001
v -4.500000 9.000000 3.375001
v 3.363511 11.372621 2.522633
v -3.363511 11.372621 2.522633
v -2.522633 11.685282 2.522633
v -6.750002 0.000000 6.750002
v 2.627743 11.685282 2.522633
v 7.031252 0.000000 6.750002
v 6.000001 9.000000 -4.687501
v 9.000002 0.000000 -7.031252
v -4.500000 9.000000 -3.515626
v -3.363511 11.372621 -2.627743
v -2.522633 11.685282 -2.627743
v 2.627743 11.685282 -2.627743
v -6.000001 9.000000 -4.687501
v -9.000002 0.000000 -7.031252
v 4.500000 9.000000 -3.515625
v 3.363511 11.372621 -2.627743
v -6.750002 0.000000 -7.031252
v 7.031252 0.000000 -7.031252
v -4.010977 14.000000 3.005978
v -4.010977 14.000000 4.010977
v -3.005978 14.000000 -4.029025
v -4.010977 14.000000 -4.029025
v 2.355918 14.831962 -2.355918
v 4.029025 14.000000 -4.029025
v 2.355918 14.831962 2.337871
v 4.029025 14.000000 4.010977
v -2.337871 14.831962 -2.355918
v 3.149649 14.000000 4.010977
v 4.029025 14.000000 -3.149649
v -2.337871 14.831962 2.337871
v 2.364493 14.000000 -3.024024
v 3.024024 14.000000 2.252228
v -3.005977 14.000000 -2.364493
v -2.252228 14.000000 3.005977
v -3.005978 14.000000 4.010977
v -2.252228 14.000000 -3.024024
v 3.149649 14.000000 -4.029025
v 2.364493 14.000000 3.005977
v 4.029025 14.000000 3.005978
v -3.005977 14.000000 2.252228
v -4.010977 14.000000 -3.149649
v 3.024024 14.000000 -2.364493
v 7.200001 5.400000 -7.200001
v -7.200001 5.400000 -7.200001
v -7.200001 5.400000 7.200001
v 7.200001 5.400000 7.200001
v -5.400002 5.400000 7.200001
v -5.400002 5.400000 -7.200001
v 5.625001 5.400000 7.200001
v 5.625001 5.400000 -7.200001
v 7.200001 5.400000 5.400002
v -7.200001 5.400000 5.400002
v 7.200001 5.400000 -5.625001
v -7.200001 5.400000 -5.625001
v -6.600001 7.200000 -6.600001
v 6.600001 7.200000 6.600001
v 6.600001 7.200000 -6.600001
v -6.600001 7.200000 6.600001
v -4.950001 7.200000 6.600001
v -4.950001 7.200000 -6.600001
v 5.156251 7.200000 6.600001
v 5.156251 7.200000 -6.600001
v 6.600001 7.200000 4.950001
v -6.600001 7.200000 4.950001
v 6.600001 7.200000 -5.156251
v -6.600001 7.200000 -5.156251
v -6.125659 7.041886 4.950001
v -6.725659 5.241886 5.400002
v -6.125659 7.041886 -5.156251
v -6.725659 5.241886 -5.625001
v -4.950001 7.041886 6.125659
v -5.400002 5.241886 6.725659
v 5.156251 7.041886 6.125659
v 5.625001 5.241886 6.725659
v 6.125659 7.041886 4.950001
v 6.725659 5.241886 5.400002
v 6.125659 7.041886 -5.156251
v 6.725659 5.241886 -5.625001
v -4.950001 7.041886 -6.125659
v -5.400002 5.241886 -6.725659
v 5.156251 7.041886 -6.125659
v 5.625001 5.241886 -6.725659
vt 0.746640 0.782642
vt 0.742512 0.834222
vt 0.718260 0.834222
vt 0.714194 0.782642
vt 0.446832 0.709269
vt 0.446832 0.743510
vt 0.323109 0.782642
vt 0.323109 0.739841
vt 0.348520 0.342406
vt 0.391321 0.342406
vt 0.391321 0.391321
vt 0.348520 0.391321
vt 0.515043 0.313057
vt 0.515043 0.352189
vt 0.391321 0.391321
vt 0.391321 0.342406
vt 0.123722 0.709269
vt 0.123722 0.743510
vt 0.000000 0.782642
vt 0.000000 0.739841
vt 0.769809 0.704378
vt 0.769809 0.743510
vt 0.646086 0.782642
vt 0.646086 0.733727
vt 0.597524 0.326101
vt 0.597524 0.293491
vt 0.714430 0.261011
vt 0.714430 0.282859
vt 0.852292 0.485075
vt 0.852292 0.456541
vt 0.969063 0.499390
vt 0.969063 0.518508
vt 0.616895 0.909430
vt 0.584491 0.909430
vt 0.590314 0.800729
vt 0.612024 0.800729
vt 0.597524 0.093754
vt 0.597524 0.065220
vt 0.714430 0.108069
vt 0.714430 0.127187
vt 0.842395 0.130250
vt 0.860675 0.130250
vt 0.842395 0.146246
vt 0.776905 0.782642
vt 0.773083 0.834143
vt 0.750462 0.834143
vt 0.746640 0.782642
vt 0.714194 0.782642
vt 0.710127 0.834222
vt 0.685876 0.834222
vt 0.681748 0.782642
vt 0.170629 0.932444
vt 0.170629 0.782642
vt 0.227504 0.801172
vt 0.227504 0.913142
vt 0.842395 0.000000
vt 0.860675 0.018281
vt 0.842395 0.018281
vt 0.260114 0.982378
vt 0.227504 0.956902
vt 0.227504 0.807099
vt 0.260114 0.782642
vt 0.647159 0.909299
vt 0.616895 0.909299
vt 0.621888 0.800702
vt 0.642166 0.800702
vt 0.515043 0.073373
vt 0.391321 0.042801
vt 0.000000 0.342406
vt 0.048915 0.342406
vt 0.048915 0.391321
vt 0.000000 0.391321
vt 0.446832 0.430453
vt 0.446832 0.469585
vt 0.323109 0.440236
vt 0.323109 0.391321
vt 0.515043 0.039132
vt 0.391321 0.000000
vt 0.370371 0.936944
vt 0.333615 0.918728
vt 0.345744 0.803422
vt 0.370371 0.815627
vt 0.000000 0.932444
vt 0.000000 0.782642
vt 0.056877 0.801944
vt 0.056877 0.913914
vt 0.912003 0.146246
vt 0.944613 0.170703
vt 0.944613 0.320506
vt 0.912003 0.345982
vt 0.048915 0.042801
vt 0.348520 0.042801
vt 0.730425 0.018281
vt 0.730425 0.130250
vt 0.000000 0.042801
vt 0.730425 0.000000
vt 0.730425 0.146246
vt 0.552088 0.935719
vt 0.515846 0.917973
vt 0.527806 0.802797
vt 0.552088 0.814687
vt 0.977223 0.345982
vt 0.944613 0.320506
vt 0.944613 0.170703
vt 0.977223 0.146246
vt 0.769809 0.464694
vt 0.646086 0.434122
vt 0.123722 0.430453
vt 0.123722 0.469585
vt 0.000000 0.440236
vt 0.391321 0.042801
vt 0.056877 0.932444
vt 0.056877 0.782642
vt 0.113755 0.801172
vt 0.113755 0.913142
vt 0.348520 0.000000
vt 0.391321 0.000000
vt 0.769809 0.430453
vt 0.646086 0.391321
vt 0.584491 0.909430
vt 0.552088 0.909430
vt 0.556958 0.800729
vt 0.578669 0.800729
vt 0.714430 0.130250
vt 0.714430 0.018281
vt 0.000000 0.000000
vt 0.048915 0.000000
vt 0.113755 0.932444
vt 0.113755 0.782642
vt 0.170629 0.801944
vt 0.170629 0.913914
vt 0.912003 0.345982
vt 0.879393 0.321525
vt 0.879393 0.171722
vt 0.912003 0.146246
vt 0.681748 0.782642
vt 0.677380 0.834301
vt 0.651527 0.834301
vt 0.647159 0.782642
vt 0.407126 0.800516
vt 0.443366 0.782642
vt 0.443366 0.903845
vt 0.419085 0.915821
vt 0.529314 0.717422
vt 0.529314 0.688888
vt 0.646086 0.655455
vt 0.646086 0.674572
vt 0.479605 0.800388
vt 0.515846 0.782642
vt 0.515846 0.903674
vt 0.491564 0.915564
vt 0.370371 0.800857
vt 0.407126 0.782642
vt 0.407126 0.903959
vt 0.382500 0.916163
vt 0.802371 0.827209
vt 0.802371 0.867468
vt 0.785099 0.819015
vt 0.839915 0.811355
vt 0.866553 0.782642
vt 0.849280 0.831095
vt 0.839915 0.790836
vt 0.839915 0.831095
vt 0.822643 0.782642
vt 0.791429 0.819015
vt 0.776905 0.782642
vt 0.813278 0.819015
vt 0.813278 0.802382
vt 0.866553 0.822901
vt 0.813278 0.797166
vt 0.776905 0.836287
vt 0.566994 0.782642
vt 0.632027 0.782642
vt 0.601989 0.782642
vt 0.877969 0.000000
vt 0.889557 0.018110
vt 0.866382 0.018110
vt 0.895264 0.126912
vt 0.860675 0.126912
vt 0.206203 0.489151
vt 0.206203 0.456541
vt 0.323109 0.499783
vt 0.323109 0.521631
vt 0.206203 0.717422
vt 0.206203 0.688888
vt 0.323109 0.655455
vt 0.323109 0.674572
vt 0.296865 0.800984
vt 0.333615 0.782642
vt 0.333615 0.904128
vt 0.308992 0.916417
vt 0.529314 0.489151
vt 0.529314 0.456541
vt 0.646086 0.499783
vt 0.646086 0.521631
vt 0.852292 0.717422
vt 0.852292 0.684812
vt 0.969063 0.652332
vt 0.969063 0.674180
vt 0.479605 0.936053
vt 0.443366 0.918179
vt 0.455324 0.802874
vt 0.479605 0.814850
vt 0.296864 0.937269
vt 0.260114 0.918927
vt 0.272241 0.803493
vt 0.296864 0.815782
vt 0.344545 0.782642
vt 0.527713 0.782642
vt 0.271016 0.782642
vt 0.455193 0.782642
vt 0.491471 0.935719
vt 0.307767 0.937269
vt 0.418954 0.936053
vt 0.381301 0.936944
vt 0.834849 0.867854
vt 0.834849 0.831807
vt 0.845635 0.831095
vt 0.845635 0.867143
vt 0.811050 0.443497
vt 0.811050 0.474884
vt 0.164963 0.443497
vt 0.164963 0.479368
vt 0.845635 0.867733
vt 0.845635 0.831823
vt 0.856419 0.831095
vt 0.856419 0.867004
vt 0.757424 0.870053
vt 0.757424 0.834143
vt 0.768209 0.834871
vt 0.768209 0.870781
vt 0.556284 0.052176
vt 0.556284 0.083563
vt 0.488073 0.443497
vt 0.488073 0.479368
vt 0.989688 0.830742
vt 0.989688 0.611031
vt 1.000000 0.611031
vt 1.000000 0.830742
vt 0.811050 0.694595
vt 0.811050 0.730466
vt 0.164963 0.699079
vt 0.164963 0.730466
vt 0.556284 0.303274
vt 0.556284 0.339145
vt 0.488073 0.699079
vt 0.488073 0.730466
vt 0.838153 0.376147
vt 0.838153 0.156436
vt 0.879393 0.146246
vt 0.879393 0.385930
vt 0.979376 0.850715
vt 0.979376 0.631005
vt 0.989688 0.631005
vt 0.989688 0.850715
vt 0.979376 0.391321
vt 0.979376 0.631005
vt 0.969063 0.631005
vt 0.969063 0.391321
vt 0.746640 0.870053
vt 0.746640 0.834143
vt 0.757424 0.834871
vt 0.757424 0.870781
vt 0.796912 0.375739
vt 0.796912 0.156029
vt 0.838153 0.146246
vt 0.838153 0.385930
vt 0.989688 0.391321
vt 0.989688 0.631005
vt 0.979376 0.631005
vt 0.979376 0.391321
vt 0.856419 0.867733
vt 0.856419 0.831823
vt 0.867203 0.831095
vt 0.867203 0.867004
vt 0.802371 0.855063
vt 0.802371 0.819015
vt 0.813157 0.819727
vt 0.813157 0.855774
vt 0.755671 0.375739
vt 0.755671 0.156029
vt 0.796912 0.146246
vt 0.796912 0.385930
vt 0.813278 0.867143
vt 0.813278 0.831095
vt 0.824064 0.831807
vt 0.824064 0.867854
vt 0.969063 0.870689
vt 0.969063 0.631005
vt 0.979376 0.631005
vt 0.979376 0.870689
vt 0.997848 0.146246
vt 0.997848 0.365956
vt 0.987536 0.365956
vt 0.987536 0.146246
vt 0.714430 0.376147
vt 0.714430 0.156436
vt 0.755671 0.146246
vt 0.755671 0.385930
vt 0.824064 0.867854
vt 0.824064 0.831807
vt 0.834849 0.831095
vt 0.834849 0.867143
vt 0.977223 0.385930
vt 0.977223 0.146246
vt 0.987536 0.146246
vt 0.987536 0.385930
vt 1.000000 0.391321
vt 1.000000 0.611031
vt 0.989688 0.611031
vt 0.989688 0.391321
vn -0.5654 0.5126 -0.6462
vn 0.0000 0.3162 -0.9487
vn 0.0000 -1.0000 0.0000
vn 0.0000 0.3162 0.9487
vn -0.9487 0.3162 0.0000
vn 0.9487 0.3162 0.0000
vn 0.0000 0.3696 0.9292
vn 0.9303 0.3667 0.0000
vn 0.6176 -0.3470 0.7058
vn 0.3700 0.8708 0.3238
vn 0.6055 0.5166 -0.6055
vn 0.6462 0.5126 0.5654
vn 0.0000 0.4320 -0.9019
vn -0.3291 0.8851 0.3291
vn 0.0000 1.0000 -0.0000
vn -0.6628 -0.3483 0.6628
vn -0.7880 0.0003 -0.6156
vn 0.0000 0.4320 0.9019
vn 0.0000 0.9373 0.3485
vn -0.3485 0.9373 0.0000
vn 0.3911 0.9203 0.0000
vn 0.6000 -0.0025 -0.8000
vn -0.9019 0.4320 0.0000
vn -0.7058 -0.3470 -0.6176
vn 0.3642 0.8571 -0.3642
vn -0.3238 0.8708 -0.3700
vn 0.0000 0.9203 -0.3911
vn 0.9019 0.4320 0.0000
vn -0.6083 0.5099 0.6083
vn -0.6000 -0.0004 -0.8000
vn 0.0000 0.3667 -0.9303
vn 0.8000 -0.0025 -0.6000
vn 0.6156 0.0003 0.7880
vn 0.0000 0.8954 -0.4452
vn 0.4452 0.8954 0.0000
vn -0.4452 0.8954 0.0000
vn 0.0000 0.8954 0.4452
vn -0.6631 -0.4728 -0.5803
vn -0.6130 -0.4986 0.6130
vn 0.5803 -0.4728 0.6631
vn 0.6337 -0.4437 -0.6337
vn 0.6632 -0.3471 -0.6632
vn -0.9292 0.3696 0.0000
vn -0.7880 0.0025 0.6156
vn 0.8000 -0.0004 0.6000
vn -0.6156 0.0025 0.7880
vn -0.7087 0.4373 -0.5537
vn 0.5226 0.4914 -0.6968
vn -0.5537 0.4373 0.7087
vn 0.6968 0.4914 0.5226
vn 0.6968 0.4914 -0.5226
vn -0.7087 0.4373 0.5537
vn -0.5226 0.4914 -0.6968
vn 0.5537 0.4373 0.7087
vn -0.0730 -0.2189 -0.9730
vn 0.0758 -0.2275 0.9708
vn -0.9708 -0.2275 -0.0758
vn 0.0000 -0.9487 0.3162
vn -0.3162 -0.9487 0.0000
vn 0.3162 0.9487 0.0000
vn -0.0758 -0.2275 0.9708
vn 0.0000 0.9487 -0.3162
vn -0.9708 -0.2275 0.0758
vn 0.9730 -0.2189 0.0730
vn 0.0730 -0.2189 -0.9730
vn -0.3162 0.9487 0.0000
vn 0.3162 -0.9487 0.0000
vn 0.9730 -0.2189 -0.0730
vn 0.0000 0.9487 0.3162
vn 0.0000 -0.9487 -0.3162
usemtl Material
s off
f 39/1/1 40/2/1 15/3/1 13/4/1
f 80/5/2 73/6/2 7/7/2 22/8/2
f 36/9/3 28/10/3 8/11/3 18/12/3
f 77/13/4 75/14/4 6/15/4 12/16/4
f 84/17/5 74/18/5 5/19/5 44/20/5
f 81/21/6 76/22/6 8/23/6 28/24/6
f 4/25/7 10/26/7 65/27/7 50/28/7
f 37/29/8 1/30/8 54/31/8 59/32/8
f 39/33/9 13/34/9 66/35/9 63/36/9
f 17/37/7 2/38/7 56/39/7 58/40/7
f 35/41/10 24/42/10 31/43/10
f 19/44/11 20/45/11 46/46/11 45/47/11
f 29/48/12 31/49/12 24/50/12 23/51/12
f 19/52/13 13/53/13 15/54/13 20/55/13
f 32/56/14 16/57/14 33/58/14
f 17/59/15 23/60/15 14/61/15 10/62/15
f 19/63/16 45/64/16 72/65/16 61/66/16
f 79/67/4 77/13/4 12/16/4 18/68/4
f 27/69/3 34/70/3 12/71/3 6/72/3
f 74/73/2 78/74/2 11/75/2 5/76/2
f 76/77/4 79/67/4 18/68/4 8/78/4
f 21/79/17 19/80/17 61/81/17 67/82/17
f 14/83/18 23/84/18 24/85/18 16/86/18
f 33/58/19 16/57/19 24/42/19 35/41/19
f 9/87/15 13/88/15 19/89/15 21/90/15
f 34/70/3 36/9/3 18/12/3 12/71/3
f 78/74/2 80/5/2 22/8/2 11/75/2
f 47/91/3 48/92/3 36/9/3 34/70/3
f 41/93/15 33/58/15 35/41/15 42/94/15
f 44/95/3 47/91/3 34/70/3 27/69/3
f 40/96/20 32/56/20 33/58/20 41/93/20
f 42/94/21 35/41/21 31/43/21 46/97/21
f 26/98/22 29/99/22 62/100/22 69/101/22
f 37/102/15 45/103/15 29/104/15 26/105/15
f 83/106/6 81/21/6 28/24/6 38/107/6
f 75/108/5 82/109/5 27/110/5 6/72/5
f 48/92/3 38/111/3 28/10/3 36/9/3
f 39/112/23 30/113/23 32/114/23 40/115/23
f 22/116/3 7/117/3 38/111/3 48/92/3
f 73/118/6 83/106/6 38/107/6 7/119/6
f 29/120/24 23/121/24 68/122/24 62/123/24
f 20/124/25 42/94/25 46/97/25
f 40/96/26 41/93/26 15/125/26
f 5/126/3 11/127/3 47/91/3 44/95/3
f 15/125/27 41/93/27 42/94/27 20/124/27
f 11/127/3 22/116/3 48/92/3 47/91/3
f 29/128/28 45/129/28 46/130/28 31/131/28
f 25/132/15 30/133/15 39/134/15 43/135/15
f 82/109/5 84/17/5 44/20/5 27/110/5
f 14/136/29 16/137/29 32/138/29 30/139/29
f 30/140/30 25/141/30 49/142/30 70/143/30
f 1/144/31 21/145/31 67/146/31 54/147/31
f 13/148/32 9/149/32 51/150/32 66/151/32
f 45/152/33 37/153/33 59/154/33 72/155/33
f 67/156/34 53/157/34 54/158/34
f 69/159/35 55/160/35 56/161/35
f 71/162/36 57/163/36 52/164/36
f 65/165/37 60/166/37 50/167/37
f 57/163/34 51/168/34 52/164/34
f 55/160/37 58/169/37 56/161/37
f 60/166/36 49/170/36 50/167/36
f 53/157/35 59/171/35 54/158/35
f 55/172/38 62/123/38 68/122/38
f 53/173/39 61/66/39 72/65/39
f 57/174/40 63/36/40 66/35/40
f 60/175/41 64/176/41 70/177/41
f 14/178/42 30/179/42 70/177/42 64/176/42
f 25/180/43 4/181/43 50/182/43 49/183/43
f 3/184/43 43/185/43 71/186/43 52/187/43
f 23/188/44 17/189/44 58/190/44 68/191/44
f 9/192/31 3/193/31 52/194/31 51/195/31
f 2/196/8 26/197/8 69/198/8 56/199/8
f 10/200/45 14/201/45 64/202/45 65/203/45
f 43/204/46 39/205/46 63/206/46 71/207/46
f 67/82/47 61/81/47 53/208/47
f 69/101/48 62/100/48 55/209/48
f 71/207/49 63/206/49 57/210/49
f 65/203/50 64/202/50 60/211/50
f 57/212/51 66/151/51 51/150/51
f 55/213/52 68/191/52 58/190/52
f 60/214/53 70/143/53 49/142/53
f 53/215/54 72/155/54 59/154/54
f 82/216/55 94/217/55 97/218/55 98/219/55
f 87/220/6 95/221/6 83/106/6 73/118/6
f 88/222/5 94/223/5 82/109/5 75/108/5
f 83/224/56 95/225/56 107/226/56 108/227/56
f 92/228/57 80/229/57 112/230/57 111/231/57
f 86/232/4 91/233/4 79/67/4 76/77/4
f 85/234/2 90/235/2 78/74/2 74/73/2
f 91/236/58 89/237/58 101/238/58 103/239/58
f 93/240/6 86/241/6 76/22/6 81/21/6
f 96/242/5 85/243/5 74/18/5 84/17/5
f 89/244/4 88/245/4 75/14/4 77/13/4
f 92/246/2 87/247/2 73/6/2 80/5/2
f 21/145/2 1/144/2 87/247/2 92/246/2
f 10/26/4 4/25/4 88/245/4 89/244/4
f 43/185/5 3/184/5 85/243/5 96/242/5
f 26/197/6 2/196/6 86/241/6 93/240/6
f 17/37/4 10/26/4 89/244/4 91/233/4
f 3/193/2 9/192/2 90/235/2 85/234/2
f 2/38/4 17/37/4 91/233/4 86/232/4
f 9/192/2 21/145/2 92/246/2 90/235/2
f 37/29/6 26/197/6 93/240/6 95/221/6
f 4/181/5 25/180/5 94/223/5 88/222/5
f 1/30/6 37/29/6 95/221/6 87/220/6
f 25/180/5 43/185/5 96/242/5 94/223/5
f 97/248/5 99/249/5 100/250/5 98/251/5
f 94/252/59 96/253/59 99/254/59 97/255/59
f 84/256/60 82/257/60 98/258/60 100/259/60
f 96/260/61 84/261/61 100/262/61 99/263/61
f 103/264/4 101/265/4 102/266/4 104/267/4
f 77/268/62 79/269/62 104/270/62 102/271/62
f 79/272/63 91/273/63 103/274/63 104/275/63
f 89/276/64 77/277/64 102/278/64 101/279/64
f 107/280/6 105/281/6 106/282/6 108/283/6
f 93/284/65 81/285/65 106/286/65 105/287/65
f 81/288/66 83/289/66 108/290/66 106/291/66
f 95/292/67 93/293/67 105/294/67 107/295/67
f 109/296/2 111/297/2 112/298/2 110/299/2
f 78/300/68 90/301/68 109/302/68 110/303/68
f 80/304/69 78/305/69 110/306/69 112/307/69
f 90/308/70 92/309/70 111/310/70 109/311/70
