# Blender v2.91.2 OBJ File: ''
# www.blender.org
mtllib brokenBlock.mtl
o ObjObject
v -3.200000 6.400000 3.200001
v -3.200000 0.000000 -3.200000
v -3.200000 -0.000000 3.200000
v -3.200000 6.400001 -3.199999
v 0.300000 1.399999 3.200000
v 0.300000 1.400000 0.300000
v 0.300000 4.000000 0.300000
v 0.300000 6.400000 3.200001
v 0.300000 4.000000 -3.200000
v 0.300000 6.400001 -3.199999
v 3.200000 -0.000000 3.200000
v 3.200000 0.000000 -3.200000
v 3.200000 1.399999 3.200000
v 3.200000 1.400000 0.300000
v 3.200000 4.000000 0.300000
v 3.200000 4.000000 -3.200000
v 0.300000 1.399999 3.200000
v -3.200000 6.400000 3.200001
v -3.200000 -0.000000 3.200000
v 0.300000 6.400000 3.200001
v 3.200000 -0.000000 3.200000
v 3.200000 1.399999 3.200000
v 3.200000 1.400000 0.300000
v 0.300000 4.000000 0.300000
v 0.300000 1.400000 0.300000
v 3.200000 4.000000 0.300000
v -3.200000 0.000000 -3.200000
v -3.200000 6.400001 -3.199999
v 0.300000 4.000000 -3.200000
v 0.300000 6.400001 -3.199999
v 3.200000 0.000000 -3.200000
v 3.200000 4.000000 -3.200000
v -3.200000 0.000000 -3.200000
v 3.200000 -0.000000 3.200000
v -3.200000 -0.000000 3.200000
v 3.200000 0.000000 -3.200000
v 0.300000 1.399999 3.200000
v 3.200000 1.399999 3.200000
v 0.300000 1.400000 0.300000
v 3.200000 1.400000 0.300000
v 0.300000 4.000000 0.300000
v 3.200000 4.000000 0.300000
v 0.300000 4.000000 -3.200000
v 3.200000 4.000000 -3.200000
v -3.200000 6.400000 3.200001
v 0.300000 6.400000 3.200001
v -3.200000 6.400001 -3.199999
v 0.300000 6.400001 -3.199999
vt 0.607422 0.500000
vt 0.607422 0.500000
vt 0.607422 0.500000
vt 0.607422 0.500000
vt 0.607422 0.500000
vt 0.607422 0.500000
vt 0.607422 0.500000
vt 0.607422 0.500000
vt 0.607422 0.500000
vt 0.607422 0.500000
vt 0.607422 0.500000
vt 0.607422 0.500000
vt 0.607422 0.500000
vt 0.607422 0.500000
vt 0.607422 0.500000
vt 0.607422 0.500000
vt 0.607422 0.500000
vt 0.607422 0.500000
vt 0.607422 0.500000
vt 0.607422 0.500000
vt 0.607422 0.500000
vt 0.607422 0.500000
vt 0.607422 0.500000
vt 0.607422 0.500000
vt 0.607422 0.500000
vt 0.607422 0.500000
vt 0.607422 0.500000
vt 0.607422 0.500000
vt 0.607422 0.500000
vt 0.607422 0.500000
vt 0.607422 0.500000
vt 0.607422 0.500000
vt 0.607422 0.500000
vt 0.607422 0.500000
vt 0.607422 0.500000
vt 0.607422 0.500000
vt 0.607422 0.500000
vt 0.607422 0.500000
vt 0.607422 0.500000
vt 0.607422 0.500000
vt 0.607422 0.500000
vt 0.607422 0.500000
vt 0.607422 0.500000
vt 0.607422 0.500000
vt 0.607422 0.500000
vt 0.607422 0.500000
vt 0.607422 0.500000
vt 0.607422 0.500000
vn -1.0000 0.0000 0.0000
vn 1.0000 0.0000 0.0000
vn 0.0000 -0.0000 1.0000
vn 0.0000 0.0000 -1.0000
vn 0.0000 -1.0000 -0.0000
vn 0.0000 1.0000 0.0000
usemtl palette
s 1
f 1/1/1 2/2/1 3/3/1
f 4/4/1 2/2/1 1/1/1
f 5/5/2 6/6/2 7/7/2
f 5/5/2 7/7/2 8/8/2
f 7/7/2 9/9/2 8/8/2
f 8/8/2 9/9/2 10/10/2
f 11/11/2 12/12/2 13/13/2
f 13/13/2 12/12/2 14/14/2
f 14/14/2 12/12/2 15/15/2
f 15/15/2 12/12/2 16/16/2
f 17/17/3 18/18/3 19/19/3
f 20/20/3 18/18/3 17/17/3
f 21/21/3 17/17/3 19/19/3
f 22/22/3 17/17/3 21/21/3
f 23/23/3 24/24/3 25/25/3
f 26/26/3 24/24/3 23/23/3
f 27/27/4 28/28/4 29/29/4
f 29/29/4 28/28/4 30/30/4
f 27/27/4 29/29/4 31/31/4
f 31/31/4 29/29/4 32/32/4
f 33/33/5 34/34/5 35/35/5
f 36/36/5 34/34/5 33/33/5
f 37/37/6 38/38/6 39/39/6
f 39/39/6 38/38/6 40/40/6
f 41/41/6 42/42/6 43/43/6
f 43/43/6 42/42/6 44/44/6
f 45/45/6 46/46/6 47/47/6
f 47/47/6 46/46/6 48/48/6
