# Blender v2.91.2 OBJ File: 'barrier01.blend'
# www.blender.org
mtllib barrier01.mtl
o Cube
v -10.000001 11.000000 -0.231937
v -10.000001 0.200000 -0.231937
v 10.000001 11.000000 -0.231938
v 10.000001 0.200000 -0.231938
v -10.000001 11.000000 0.231938
v -10.000001 0.200000 0.231938
v 10.000001 11.000000 0.231937
v 10.000001 0.200000 0.231937
v 8.500004 0.000000 1.069608
v 8.500003 12.000000 -0.500000
v 8.500003 12.000000 0.500000
v 8.500004 0.000000 -1.069608
v -8.612503 12.000000 0.500000
v -8.612504 0.000000 -1.069608
v -8.612503 0.000000 1.069608
v -8.612502 12.000000 -0.500000
v 8.030481 11.400000 -0.000000
v -8.185762 11.400000 0.000000
v 8.500003 1.200000 -0.500000
v 8.500003 1.200000 0.500000
v -8.612503 1.200000 -0.500000
v -8.612502 1.200000 0.500000
v 8.030481 1.480000 -0.000000
v -8.185762 1.480000 0.000000
v -8.185762 1.480000 0.000000
v -8.185762 11.400000 0.000000
v 8.030481 1.480000 -0.000000
v 8.030481 11.400000 -0.000000
v 8.141613 11.350002 0.012706
v 8.141613 1.450001 0.012707
v -8.341613 11.350002 0.012706
v -8.341613 1.450001 0.012708
vt 0.776631 0.148702
vt 0.776631 0.409761
vt 0.751706 0.339781
vt 0.751706 0.218682
vt 0.520593 0.218682
vt 0.520593 0.339781
vt 0.493960 0.409772
vt 0.261055 0.410148
vt 0.285007 0.340356
vt 0.517912 0.339980
vt 0.019554 0.000000
vt 0.019555 0.558462
vt 0.000000 0.339781
vt 0.000000 0.218682
vt 0.545518 0.148702
vt 0.285007 0.219265
vt 0.517912 0.218890
vt 0.266286 0.689233
vt 0.480213 0.688888
vt 0.493960 0.819461
vt 0.261055 0.819837
vt 0.545518 0.409761
vt 0.493960 0.558421
vt 0.261055 0.149108
vt 0.261055 0.218682
vt 0.261055 0.339781
vt 0.242920 0.558462
vt 0.242920 0.000000
vt 0.493960 0.148732
vt 0.226124 0.688992
vt 0.013843 0.688992
vt 0.000000 0.558462
vt 0.231113 0.558462
vt 0.261055 0.558797
vt 0.231113 0.819522
vt 0.000000 0.819522
vt 0.731508 0.558462
vt 0.731508 0.774271
vt 0.519838 0.774271
vt 0.519838 0.558462
vt 0.776631 0.558462
vt 0.776631 0.409761
vt 1.000000 0.409761
vt 1.000000 0.558462
vt 1.000000 0.000000
vt 1.000000 0.148702
vt 0.776631 0.148702
vt 0.776631 0.000000
vt 0.519838 0.000000
vt 0.519838 0.558462
vt 0.519838 0.000000
vt 0.519838 0.558421
vt 0.782760 0.279231
vt 0.994430 0.279231
vt 0.493960 0.558421
vt 0.493960 0.558421
vt 0.493960 0.558421
vt 0.493960 0.558421
vt 0.493960 0.558421
vt 0.493960 0.558421
vt 0.493960 0.558421
vt 0.493960 0.558421
vt 0.942445 0.558462
vt 0.942445 0.773836
vt 0.731508 0.773836
vt 0.731508 0.558462
vn 0.5547 0.8321 0.0000
vn 1.0000 0.0000 0.0000
vn -0.1897 0.0000 0.9818
vn 0.1322 -0.9912 0.0000
vn 0.1759 0.0000 -0.9844
vn -1.0000 0.0000 0.0000
vn -0.7290 0.0000 -0.6845
vn 0.1759 0.0000 0.9844
vn -0.7875 0.6163 0.0000
vn -0.5847 0.8113 -0.0000
vn -0.1427 -0.9898 0.0000
vn -0.1897 0.0000 -0.9818
vn 0.7606 0.0000 0.6492
vn -0.7290 0.0000 0.6845
vn 0.0000 -1.0000 0.0000
vn 0.7606 -0.0000 -0.6492
vn 0.8149 0.5796 0.0000
vn 0.0000 0.0000 1.0000
vn 0.0000 0.4288 0.9034
vn -0.0000 0.4288 -0.9034
vn -0.4354 0.3860 -0.8133
vn 0.4083 0.3914 0.8246
vn 0.4083 0.3914 -0.8246
vn -0.4354 0.3860 0.8133
vn 0.0000 0.8725 0.4886
vn -0.0000 0.8725 -0.4886
vn -0.0000 -0.0000 -1.0000
usemtl Material
s off
f 10/1/1 11/2/1 7/3/1 3/4/1
f 4/5/2 3/4/2 7/3/2 8/6/2
f 22/7/3 13/8/3 5/9/3 6/10/3
f 9/11/4 12/12/4 4/13/4 8/14/4
f 19/15/5 10/1/5 3/4/5 4/5/5
f 6/10/6 5/9/6 1/16/6 2/17/6
f 27/18/7 17/19/7 10/20/7 19/21/7
f 8/6/8 7/3/8 11/2/8 20/22/8
f 17/19/9 11/23/9 10/20/9
f 1/16/10 5/9/10 13/8/10 16/24/10
f 6/25/11 2/26/11 14/27/11 15/28/11
f 2/17/12 1/16/12 16/24/12 21/29/12
f 25/30/13 18/31/13 13/32/13 22/33/13
f 20/34/14 11/23/14 17/19/14 27/18/14
f 15/28/15 14/27/15 12/12/15 9/11/15
f 21/35/16 16/36/16 18/31/16 25/30/16
f 16/36/17 13/32/17 18/31/17
f 23/37/18 28/38/18 26/39/18 24/40/18
f 9/41/19 20/42/19 22/43/19 15/44/19
f 14/45/20 21/46/20 19/47/20 12/48/20
f 2/17/21 21/29/21 14/49/21
f 8/6/22 20/22/22 9/50/22
f 12/51/23 19/15/23 4/5/23
f 15/52/24 22/7/24 6/10/24
f 20/42/25 27/53/25 25/54/25 22/43/25
f 21/46/26 25/54/26 27/53/26 19/47/26
f 24/55/18 26/56/18 18/57/18 25/58/18
f 26/56/18 28/59/18 17/60/18 18/57/18
f 28/59/18 23/61/18 27/62/18 17/60/18
f 23/61/18 24/55/18 25/58/18 27/62/18
f 29/63/27 30/64/27 32/65/27 31/66/27
