# Blender v2.91.2 OBJ File: 'tower01.blend'
# www.blender.org
mtllib tower01.mtl
o Cube
v 3.000000 12.000000 -3.000000
v 3.000000 0.000000 -3.000000
v 3.000000 12.000000 3.000000
v 3.000000 0.000000 3.000000
v -3.000000 12.000000 -3.000000
v -3.000000 0.000000 -3.000000
v -3.000000 12.000000 3.000000
v -3.000000 0.000000 3.000000
v 2.830901 6.000000 -2.830901
v -2.830901 6.000000 2.830901
v 2.830901 6.000000 2.830901
v -2.830901 6.000000 -2.830901
v -3.000000 9.000000 3.000000
v 3.000000 9.000000 -3.000000
v 3.000000 9.000000 3.000000
v -3.000000 9.000000 -3.000000
v 3.000000 3.000000 -3.000000
v 3.000000 3.000000 3.000000
v -3.000000 3.000000 -3.000000
v -3.000000 3.000000 3.000000
v -3.000000 10.500000 3.000000
v 3.000000 10.500000 -3.000000
v 3.000000 10.500000 3.000000
v -3.000000 10.500000 -3.000000
v 3.000000 9.750000 -3.000000
v 3.000000 9.750000 3.000000
v -3.000000 9.750000 -3.000000
v -3.000000 9.750000 3.000000
v 3.000000 7.500000 -3.000000
v 3.000000 7.500000 3.000000
v -3.000000 7.500000 -3.000000
v -3.000000 7.500000 3.000000
v -3.000000 8.250000 3.000000
v 3.000000 8.250000 -3.000000
v 3.000000 8.250000 3.000000
v -3.000000 8.250000 -3.000000
v -3.000000 4.500000 3.000000
v 3.000000 4.500000 -3.000000
v 3.000000 4.500000 3.000000
v -3.000000 4.500000 -3.000000
v 3.000000 1.500000 -3.000000
v 3.000000 1.500000 3.000000
v -3.000000 1.500000 -3.000000
v -3.000000 1.500000 3.000000
v -3.000000 2.250000 3.000000
v 3.000000 2.250000 -3.000000
v 3.000000 2.250000 3.000000
v -3.000000 2.250000 -3.000000
v 3.000000 3.750000 -3.000000
v 3.000000 3.750000 3.000000
v -3.000000 3.750000 -3.000000
v -3.000000 3.750000 3.000000
v -2.454273 8.930092 2.454273
v 2.454273 8.930092 -2.454273
v 2.454273 8.930092 2.454273
v -2.454273 8.930092 -2.454273
v 2.454273 3.073970 -2.454273
v 2.454273 3.073970 2.454273
v -2.454273 3.073970 -2.454273
v -2.454273 3.073970 2.454273
v 2.454273 9.662107 -2.454273
v 2.454273 9.662107 2.454273
v -2.454273 9.662107 -2.454273
v -2.454273 9.662107 2.454273
v -2.454273 2.341955 2.454273
v 2.454273 2.341955 -2.454273
v 2.454273 2.341955 2.454273
v -2.454273 2.341955 -2.454273
v 2.830901 6.941552 -2.830901
v 2.830901 6.941552 2.830901
v -2.830901 6.941552 -2.830901
v -2.830901 6.941552 2.830901
v -2.830901 5.058448 2.830901
v 2.830901 5.058448 -2.830901
v 2.830901 5.058448 2.830901
v -2.830901 5.058448 -2.830901
vt 0.000000 0.000000
vt 0.296824 0.000000
vt 0.296824 0.296824
vt 0.000000 0.296824
vt 0.797713 0.890471
vt 0.760610 0.890471
vt 0.760610 0.593647
vt 0.797713 0.593647
vt 0.742059 0.890471
vt 0.704956 0.890471
vt 0.704956 0.593647
vt 0.742059 0.593647
vt 0.296824 0.296824
vt 0.593647 0.296824
vt 0.593647 0.593647
vt 0.296824 0.593647
vt 0.686404 0.890471
vt 0.649302 0.890471
vt 0.649302 0.593647
vt 0.686404 0.593647
vt 0.630750 0.890471
vt 0.593647 0.890471
vt 0.593647 0.593647
vt 0.630750 0.593647
vt 0.542731 0.882105
vt 0.519441 0.882105
vt 0.519441 0.602012
vt 0.542731 0.602012
vt 0.691142 0.585282
vt 0.667853 0.585282
vt 0.667853 0.305189
vt 0.691142 0.305189
vt 0.394319 0.882105
vt 0.371029 0.882105
vt 0.371029 0.602012
vt 0.394319 0.602012
vt 0.839554 0.585282
vt 0.816265 0.585282
vt 0.816265 0.305189
vt 0.839554 0.305189
vt 0.463787 0.890471
vt 0.445235 0.890471
vt 0.445235 0.593647
vt 0.463787 0.593647
vt 0.612198 0.593647
vt 0.593647 0.593647
vt 0.593647 0.296824
vt 0.612198 0.296824
vt 0.315375 0.890471
vt 0.296824 0.890471
vt 0.296824 0.593647
vt 0.315375 0.593647
vt 0.760610 0.593647
vt 0.742059 0.593647
vt 0.742059 0.296824
vt 0.760610 0.296824
vt 0.593647 0.000000
vt 0.890471 0.000000
vt 0.863473 0.026997
vt 0.620645 0.026997
vt 0.000000 0.593647
vt 0.296824 0.593647
vt 0.269826 0.620645
vt 0.026997 0.620645
vt 0.296824 0.890471
vt 0.269826 0.863473
vt 0.296824 0.000000
vt 0.593647 0.000000
vt 0.566650 0.026997
vt 0.323821 0.026997
vt 0.649301 0.890471
vt 0.649301 0.593647
vt 0.704956 0.890471
vt 0.704956 0.593647
vt 0.760610 0.890471
vt 0.760610 0.593647
vt 0.816265 0.890471
vt 0.816265 0.593647
vt 0.296824 0.593647
vt 0.000000 0.593647
vt 0.026997 0.566650
vt 0.269826 0.566650
vt 0.000000 0.890471
vt 0.026997 0.863473
vt 0.593647 0.296824
vt 0.566650 0.269826
vt 0.296824 0.296824
vt 0.269826 0.323821
vt 0.792975 0.585282
vt 0.779162 0.593647
vt 0.779162 0.296824
vt 0.792975 0.305189
vt 0.347740 0.882105
vt 0.333926 0.890471
vt 0.333926 0.593647
vt 0.347740 0.602012
vt 0.644563 0.585282
vt 0.630750 0.593647
vt 0.630750 0.296824
vt 0.644563 0.305189
vt 0.496152 0.882105
vt 0.482338 0.890471
vt 0.482338 0.593647
vt 0.496152 0.602012
vt 0.871919 0.593647
vt 0.853368 0.593647
vt 0.853368 0.296824
vt 0.871919 0.296824
vt 0.426684 0.890471
vt 0.408132 0.890471
vt 0.408132 0.593647
vt 0.426684 0.593647
vt 0.723507 0.593647
vt 0.704956 0.593647
vt 0.704956 0.296824
vt 0.723507 0.296824
vt 0.575096 0.890471
vt 0.556544 0.890471
vt 0.556544 0.593647
vt 0.575096 0.593647
vt 0.871919 0.890471
vt 0.834816 0.890471
vt 0.834816 0.593647
vt 0.871919 0.593647
vt 0.927574 0.890471
vt 0.890471 0.890471
vt 0.890471 0.593647
vt 0.927574 0.593647
vt 0.946125 0.296824
vt 0.909022 0.296824
vt 0.909022 0.000000
vt 0.946125 0.000000
vt 0.946125 0.593647
vt 0.909022 0.593647
vt 0.816265 0.890471
vt 0.816265 0.593647
vt 0.871919 0.890471
vt 0.871919 0.593647
vt 0.890471 0.296824
vt 0.890471 0.593647
vt 0.593647 0.890471
vt 0.593647 0.593647
vt 0.742059 0.593647
vt 0.742059 0.296824
vt 0.445235 0.890471
vt 0.445235 0.593647
vt 0.890471 0.593647
vt 0.890471 0.296824
vt 1.000000 0.836476
vt 0.981893 0.836476
vt 0.981893 0.593647
vt 1.000000 0.593647
vt 0.982338 0.485657
vt 0.964232 0.485657
vt 0.964232 0.242829
vt 0.982338 0.242829
vt 0.982338 0.242829
vt 0.964232 0.242829
vt 0.964232 0.000000
vt 0.982338 0.000000
vt 0.981893 0.836476
vt 0.963787 0.836476
vt 0.963787 0.593647
vt 0.981893 0.593647
vt 0.964232 0.242829
vt 0.946125 0.242829
vt 0.946125 0.000000
vt 0.964232 0.000000
vt 0.963787 0.836476
vt 0.945680 0.836476
vt 0.945680 0.593647
vt 0.963787 0.593647
vt 0.945680 0.836476
vt 0.927574 0.836476
vt 0.927574 0.593647
vt 0.945680 0.593647
vt 0.964232 0.485657
vt 0.946125 0.485657
vt 0.946125 0.242829
vt 0.964232 0.242829
vt 0.593647 0.296824
vt 0.620645 0.269826
vt 0.863473 0.269826
vt 0.000000 0.296824
vt 0.026997 0.323821
vt 0.296824 0.296824
vt 0.323821 0.269826
vn 0.0000 1.0000 0.0000
vn 0.0000 0.0000 1.0000
vn -1.0000 0.0000 0.0000
vn 0.0000 -1.0000 0.0000
vn 1.0000 0.0000 0.0000
vn 0.0000 0.0000 -1.0000
vn 0.0000 0.9861 -0.1662
vn 0.0000 -0.9873 -0.1590
vn 0.1590 -0.9873 0.0000
vn 0.0000 -0.9909 0.1343
vn 0.0000 0.9919 -0.1271
vn -0.1590 -0.9873 0.0000
vn -0.1343 -0.9909 0.0000
vn 0.1271 0.9919 0.0000
vn 0.0000 -0.2898 0.9571
vn -0.9571 -0.2898 0.0000
vn 0.9571 -0.2898 0.0000
vn 0.0000 -0.2898 -0.9571
vn 0.1662 0.9861 0.0000
vn -0.1662 0.9861 0.0000
vn 0.0000 0.9919 0.1271
vn 0.0000 0.9861 0.1662
vn 0.0000 -0.9909 -0.1343
vn -0.1271 0.9919 0.0000
vn 0.1343 -0.9909 0.0000
vn 0.0000 -0.9873 0.1590
vn 0.0000 0.2898 0.9571
vn -0.9571 0.2898 0.0000
vn 0.9571 0.2898 0.0000
vn 0.0000 0.2898 -0.9571
usemtl Material
s off
f 1/1/1 5/2/1 7/3/1 3/4/1
f 23/5/2 3/6/2 7/7/2 21/8/2
f 21/9/3 7/10/3 5/11/3 24/12/3
f 6/13/4 2/14/4 4/15/4 8/16/4
f 22/17/5 1/18/5 3/19/5 23/20/5
f 24/21/6 5/22/6 1/23/6 22/24/6
f 76/25/6 12/26/6 9/27/6 74/28/6
f 74/29/5 9/30/5 11/31/5 75/32/5
f 73/33/3 10/34/3 12/35/3 76/36/3
f 75/37/2 11/38/2 10/39/2 73/40/2
f 36/41/6 16/42/6 14/43/6 34/44/6
f 34/45/5 14/46/5 15/47/5 35/48/5
f 33/49/3 13/50/3 16/51/3 36/52/3
f 35/53/2 15/54/2 13/55/2 33/56/2
f 46/57/7 48/58/7 68/59/7 66/60/7
f 27/61/8 25/62/8 61/63/8 63/64/8
f 25/62/9 26/65/9 62/66/9 61/63/9
f 19/67/10 17/68/10 57/69/10 59/70/10
f 27/71/6 24/21/6 22/24/6 25/72/6
f 25/73/5 22/17/5 23/20/5 26/74/5
f 28/75/3 21/9/3 24/12/3 27/76/3
f 26/77/2 23/5/2 21/8/2 28/78/2
f 13/79/11 15/80/11 55/81/11 53/82/11
f 28/83/12 27/61/12 63/64/12 64/84/12
f 17/68/13 18/85/13 58/86/13 57/69/13
f 16/87/14 13/79/14 53/82/14 56/88/14
f 70/89/15 30/90/15 32/91/15 72/92/15
f 72/93/16 32/94/16 31/95/16 71/96/16
f 69/97/17 29/98/17 30/99/17 70/100/17
f 71/101/18 31/102/18 29/103/18 69/104/18
f 30/90/2 35/53/2 33/56/2 32/91/2
f 32/94/3 33/49/3 36/52/3 31/95/3
f 29/98/5 34/45/5 35/48/5 30/99/5
f 31/102/6 36/41/6 34/44/6 29/103/6
f 50/105/2 39/106/2 37/107/2 52/108/2
f 52/109/3 37/110/3 40/111/3 51/112/3
f 49/113/5 38/114/5 39/115/5 50/116/5
f 51/117/6 40/118/6 38/119/6 49/120/6
f 6/121/6 43/122/6 41/123/6 2/124/6
f 2/125/5 41/126/5 42/127/5 4/128/5
f 8/129/3 44/130/3 43/131/3 6/132/3
f 4/133/2 42/134/2 44/130/2 8/129/2
f 43/122/6 48/135/6 46/136/6 41/123/6
f 41/126/5 46/137/5 47/138/5 42/127/5
f 44/130/3 45/139/3 48/58/3 43/131/3
f 42/134/2 47/140/2 45/139/2 44/130/2
f 19/141/6 51/117/6 49/120/6 17/142/6
f 17/143/5 49/113/5 50/116/5 18/144/5
f 20/145/3 52/109/3 51/112/3 19/146/3
f 18/147/2 50/105/2 52/108/2 20/148/2
f 67/149/2 58/150/2 60/151/2 65/152/2
f 65/153/3 60/154/3 59/155/3 68/156/3
f 66/157/5 57/158/5 58/159/5 67/160/5
f 68/161/6 59/162/6 57/163/6 66/164/6
f 55/165/2 62/166/2 64/167/2 53/168/2
f 53/169/3 64/170/3 63/171/3 56/172/3
f 54/173/5 61/174/5 62/175/5 55/176/5
f 56/177/6 63/178/6 61/179/6 54/180/6
f 47/181/19 46/57/19 66/60/19 67/182/19
f 48/58/20 45/139/20 65/183/20 68/59/20
f 14/184/21 16/87/21 56/88/21 54/185/21
f 45/139/22 47/181/22 67/182/22 65/183/22
f 18/85/23 20/186/23 60/187/23 58/86/23
f 15/80/24 14/184/24 54/185/24 55/81/24
f 20/186/25 19/67/25 59/70/25 60/187/25
f 26/65/26 28/83/26 64/84/26 62/66/26
f 12/26/6 71/101/6 69/104/6 9/27/6
f 9/30/5 69/97/5 70/100/5 11/31/5
f 10/34/3 72/93/3 71/96/3 12/35/3
f 11/38/2 70/89/2 72/92/2 10/39/2
f 39/106/27 75/37/27 73/40/27 37/107/27
f 37/110/28 73/33/28 76/36/28 40/111/28
f 38/114/29 74/29/29 75/32/29 39/115/29
f 40/118/30 76/25/30 74/28/30 38/119/30
