# Blender v2.91.2 OBJ File: 'tower01.blend'
# www.blender.org
mtllib tower01.mtl
o Cube
v 3.000000 12.000000 -3.000000
v 3.000000 0.000000 -3.000000
v -3.000000 12.000000 -3.000000
v -3.000000 0.000000 -3.000000
v -2.830901 6.000000 -2.830901
v 2.830901 6.000000 -2.830901
v -2.830901 6.000000 2.830901
v 2.830901 6.000000 2.830901
v -3.000000 9.000000 -3.000000
v -3.000000 9.000000 3.000000
v 3.000000 9.000000 -3.000000
v 3.000000 9.000000 3.000000
v -3.000000 3.000000 -3.000000
v 3.000000 3.000000 -3.000000
v 3.000000 3.000000 3.000000
v -3.000000 3.000000 3.000000
v -3.000000 10.500000 -3.000000
v -3.000000 10.500000 3.000000
v 3.000000 10.500000 -3.000000
v 3.000000 10.500000 3.000000
v -3.000000 9.750000 -3.000000
v 3.000000 9.750000 -3.000000
v 3.000000 9.750000 3.000000
v -3.000000 9.750000 3.000000
v -3.000000 7.500000 -3.000000
v 3.000000 7.500000 -3.000000
v 3.000000 7.500000 3.000000
v -3.000000 7.500000 3.000000
v -3.000000 8.250000 -3.000000
v -3.000000 8.250000 3.000000
v 3.000000 8.250000 -3.000000
v 3.000000 8.250000 3.000000
v -3.000000 4.500000 -3.000000
v -3.000000 4.500000 3.000000
v 3.000000 4.500000 -3.000000
v 3.000000 4.500000 3.000000
v -3.000000 1.500000 -3.000000
v 3.000000 1.500000 -3.000000
v 3.000000 1.500000 3.000000
v -3.000000 1.500000 3.000000
v -3.000000 2.250000 -3.000000
v -3.000000 2.250000 3.000000
v 3.000000 2.250000 -3.000000
v 3.000000 2.250000 3.000000
v -3.000000 3.750000 -3.000000
v 3.000000 3.750000 -3.000000
v 3.000000 3.750000 3.000000
v -3.000000 3.750000 3.000000
v -2.454273 8.930092 -2.454273
v -2.454273 8.930092 2.454273
v 2.454273 8.930092 -2.454273
v 2.454273 8.930092 2.454273
v -2.454273 3.073970 -2.454273
v 2.454273 3.073970 -2.454273
v 2.454273 3.073970 2.454273
v -2.454273 3.073970 2.454273
v -2.454273 9.662107 -2.454273
v 2.454273 9.662107 -2.454273
v 2.454273 9.662107 2.454273
v -2.454273 9.662107 2.454273
v -2.454273 2.341955 -2.454273
v -2.454273 2.341955 2.454273
v 2.454273 2.341955 -2.454273
v 2.454273 2.341955 2.454273
v -2.830901 6.941552 -2.830901
v 2.830901 6.941552 -2.830901
v 2.830901 6.941552 2.830901
v -2.830901 6.941552 2.830901
v -2.830901 5.058448 -2.830901
v -2.830901 5.058448 2.830901
v 2.830901 5.058448 -2.830901
v 2.830901 5.058448 2.830901
v -3.000000 14.500000 -3.000000
v 3.000000 14.500000 -3.000000
v -4.000000 12.000001 -4.000000
v 4.000000 12.000001 -4.000000
v 4.000000 13.500001 -4.000000
v 4.000000 12.000001 -3.000000
v 4.000000 13.500001 -3.000000
v 3.000000 12.000001 -4.000000
v 3.000000 13.500001 -4.000000
v 4.000000 0.000000 -3.000000
v 4.000000 0.000000 -4.000000
v 3.000000 0.000000 -4.000000
v -4.000000 13.500001 -4.000000
v -4.000000 12.000001 -3.000000
v -4.000000 13.500001 -3.000000
v -3.000000 12.000001 -4.000000
v 3.000001 0.000000 4.000000
v 4.000000 0.000000 4.000000
v 4.000000 0.000000 3.000000
v 3.000000 13.500001 4.000000
v 3.000000 12.000001 4.000000
v 4.000000 13.500001 3.000000
v 4.000000 12.000001 3.000000
v 4.000000 13.500001 4.000000
v 4.000000 12.000001 4.000000
v -3.000000 13.500001 -4.000000
v 3.000000 14.500000 3.000000
v -4.000000 0.000000 -3.000000
v 3.000000 0.000000 3.000000
v 3.000000 12.000000 3.000000
v -4.000000 0.000000 -4.000000
v -3.000000 0.000000 -4.000000
v -3.000001 0.000000 4.000000
v -4.000000 0.000000 4.000000
v -4.000000 0.000000 3.000000
v -3.000000 13.500001 4.000000
v -3.000000 12.000001 4.000000
v -4.000000 13.500001 3.000000
v -4.000000 12.000001 3.000000
v -4.000000 13.500001 4.000000
v -4.000000 12.000001 4.000000
v -3.000000 14.500000 3.000000
v -3.000000 0.000000 3.000000
v -3.000000 12.000000 3.000000
vt 0.433036 0.785714
vt 0.433036 1.000000
vt 0.397322 1.000000
vt 0.397322 0.785714
vt 0.250000 0.035714
vt 0.285714 0.035714
vt 0.285714 0.250000
vt 0.250000 0.250000
vt 0.254464 1.000000
vt 0.218750 1.000000
vt 0.218750 0.785714
vt 0.254464 0.785714
vt 0.794643 0.006039
vt 0.794643 0.208246
vt 0.777829 0.208246
vt 0.777829 0.006039
vt 0.900742 0.493961
vt 0.883929 0.493961
vt 0.883929 0.291754
vt 0.900742 0.291754
vt 0.267857 0.321429
vt 0.241071 0.321429
vt 0.241071 0.285714
vt 0.267857 0.285714
vt 0.482143 0.285714
vt 0.482143 0.321429
vt 0.741071 0.000000
vt 0.721581 0.019490
vt 0.546276 0.019490
vt 0.526786 0.000000
vt 0.843750 0.500000
vt 0.830357 0.500000
vt 0.830357 0.285714
vt 0.843750 0.285714
vt 0.312500 0.250000
vt 0.312500 0.285714
vt 0.285714 0.285714
vt 0.285714 0.250000
vt 0.428571 0.785714
vt 0.448062 0.766224
vt 0.623367 0.766224
vt 0.642857 0.785714
vt 0.642857 0.571429
vt 0.623367 0.590919
vt 0.848214 0.000000
vt 0.848214 0.214286
vt 0.834821 0.214286
vt 0.834821 0.000000
vt 0.194795 0.590919
vt 0.019490 0.590919
vt 0.000000 0.571429
vt 0.214286 0.571429
vt 0.995536 0.214286
vt 0.982143 0.214286
vt 0.982143 0.000000
vt 0.995536 0.000000
vt 0.793599 0.291754
vt 0.793599 0.493961
vt 0.776786 0.493961
vt 0.776786 0.291754
vt 0.754464 0.000000
vt 0.754464 0.214286
vt 0.741071 0.214286
vt 0.741071 0.000000
vt 0.759972 0.493961
vt 0.759972 0.291754
vt 0.214286 0.785714
vt 0.194795 0.766224
vt 0.830357 0.285714
vt 0.830357 0.500000
vt 0.816964 0.500000
vt 0.816964 0.285714
vt 0.290179 0.785714
vt 0.325893 0.785714
vt 0.325893 1.000000
vt 0.290179 1.000000
vt 0.285714 0.285714
vt 0.867115 0.493961
vt 0.857143 0.500000
vt 0.857143 0.285714
vt 0.867115 0.291754
vt 0.767857 0.000000
vt 0.767857 0.214286
vt 0.736607 0.285714
vt 0.736607 0.500000
vt 0.723214 0.500000
vt 0.723214 0.285714
vt 0.884972 0.006039
vt 0.884972 0.208246
vt 0.875000 0.214286
vt 0.875000 0.000000
vt 0.986607 0.571429
vt 0.986607 0.785714
vt 0.973214 0.785714
vt 0.973214 0.571429
vt 0.924107 0.500000
vt 0.910714 0.500000
vt 0.910714 0.285714
vt 0.924107 0.285714
vt 0.821429 0.000000
vt 0.821429 0.214286
vt 0.811456 0.208246
vt 0.811456 0.006039
vt 0.857143 0.785714
vt 0.642857 0.785714
vt 0.642857 0.571429
vt 0.857143 0.571429
vt 0.019490 0.766224
vt 0.000000 0.785714
vt 0.991071 0.500000
vt 0.977679 0.500000
vt 0.977679 0.285714
vt 0.991071 0.285714
vt 0.955357 0.000000
vt 0.955357 0.214286
vt 0.941964 0.214286
vt 0.941964 0.000000
vt 0.937500 0.500000
vt 0.937500 0.285714
vt 0.026786 0.285714
vt 0.026786 0.321429
vt 0.000000 0.321429
vt 0.000000 0.285714
vt 0.250000 0.000000
vt 0.285714 0.000000
vt 0.537609 0.961020
vt 0.524538 0.961020
vt 0.524538 0.785714
vt 0.537609 0.785714
vt 0.511466 0.785714
vt 0.511466 0.961020
vt 0.498394 0.961020
vt 0.498394 0.785714
vt 0.741071 0.214286
vt 0.721581 0.194795
vt 0.446108 0.961020
vt 0.433036 0.961020
vt 0.433036 0.785714
vt 0.446108 0.785714
vt 0.233776 0.766224
vt 0.409081 0.766224
vt 0.428571 0.785714
vt 0.214286 0.785714
vt 0.214286 0.571429
vt 0.233776 0.590919
vt 0.241071 0.285714
vt 0.241071 0.321429
vt 0.498394 0.785714
vt 0.498394 0.961020
vt 0.485323 0.961020
vt 0.485323 0.785714
vt 0.428571 0.571429
vt 0.409081 0.590919
vt 0.526786 0.214286
vt 0.546276 0.194795
vt 0.472251 0.785714
vt 0.472251 0.961020
vt 0.459179 0.961020
vt 0.459179 0.785714
vt 0.803571 0.285714
vt 0.803571 0.500000
vt 0.026786 0.785714
vt 0.026786 1.000000
vt 0.000000 1.000000
vt 0.000000 0.785714
vt 0.397322 0.785714
vt 0.397322 1.000000
vt 0.361607 1.000000
vt 0.361607 0.785714
vt 0.026786 0.571429
vt 0.026786 0.535714
vt 0.241071 0.535714
vt 0.241071 0.571429
vt 0.000000 0.571429
vt 0.000000 0.535714
vt 0.928571 0.214286
vt 0.928571 0.000000
vt 0.508929 0.571429
vt 0.482143 0.571429
vt 0.482143 0.535714
vt 0.508929 0.535714
vt 0.312500 0.035714
vt 0.285714 0.035714
vt 0.285714 0.000000
vt 0.312500 0.000000
vt 0.723214 0.535714
vt 0.723214 0.571429
vt 0.035714 0.035714
vt 0.000000 0.035714
vt 0.000000 0.000000
vt 0.526786 0.250000
vt 0.526786 0.214286
vt 0.562500 0.214286
vt 0.562500 0.250000
vt 0.325893 0.785714
vt 0.361607 0.785714
vt 0.361607 1.000000
vt 0.325893 1.000000
vt 0.526786 0.000000
vt 0.526786 0.035714
vt 0.218750 1.000000
vt 0.183036 1.000000
vt 0.183036 0.785714
vt 0.218750 0.785714
vt 0.035714 0.250000
vt 0.075893 1.000000
vt 0.075893 0.785714
vt 0.111607 0.785714
vt 0.111607 1.000000
vt 0.035714 0.285714
vt 0.000000 0.285714
vt 0.508929 0.285714
vt 0.723214 0.285714
vt 0.723214 0.321429
vt 0.508929 0.321429
vt 0.267857 0.535714
vt 0.482143 0.535714
vt 0.482143 0.571429
vt 0.267857 0.571429
vt 0.598214 0.250000
vt 0.598214 0.285714
vt 0.562500 0.285714
vt 0.562500 0.250000
vt 0.241071 0.571429
vt 0.241071 0.535714
vt 0.482143 0.321429
vt 0.482143 0.285714
vt 0.955357 0.214286
vt 0.955357 0.000000
vt 0.254464 0.785714
vt 0.290179 0.785714
vt 0.290179 1.000000
vt 0.946429 0.785714
vt 0.973214 0.785714
vt 0.973214 0.571429
vt 0.946429 0.571429
vt 0.946429 0.785714
vt 0.933036 0.785714
vt 0.933036 0.571429
vt 0.000000 0.250000
vt 0.111607 1.000000
vt 0.111607 0.785714
vt 0.147322 0.785714
vt 0.147322 1.000000
vt 0.250000 0.285714
vt 0.035714 0.000000
vt 0.946429 0.571429
vt 0.973214 0.785714
vt 0.973214 0.571429
vt 0.524538 0.785714
vt 0.524538 0.961020
vt 0.511466 0.961020
vt 0.511466 0.785714
vt 0.562500 0.250000
vt 0.562500 0.285714
vt 0.526786 0.285714
vt 0.526786 0.250000
vt 0.485323 0.785714
vt 0.485323 0.961020
vt 0.472251 0.961020
vt 0.472251 0.785714
vt 0.459179 0.785714
vt 0.459179 0.961020
vt 0.446108 0.961020
vt 0.446108 0.785714
vt 0.933036 0.785714
vt 0.933036 0.571429
vt 0.750000 0.500000
vt 0.750000 0.285714
vt 0.964286 0.500000
vt 0.937500 0.500000
vt 0.937500 0.285714
vt 0.964286 0.285714
vt 0.918599 0.208246
vt 0.918599 0.006039
vt 0.147322 1.000000
vt 0.147322 0.785714
vt 0.183036 0.785714
vt 0.183036 1.000000
vt 0.977679 0.285714
vt 0.977679 0.500000
vt 0.861607 0.214286
vt 0.861607 0.000000
vt 0.448062 0.590919
vt 0.428571 0.571429
vt 0.857143 0.785714
vt 0.857143 0.571429
vt 0.870536 0.571429
vt 0.870536 0.785714
vt 0.897322 0.785714
vt 0.897322 0.571429
vt 0.040179 0.785714
vt 0.040179 1.000000
vt 0.848214 0.214286
vt 0.848214 0.000000
vt 0.901786 0.208246
vt 0.901786 0.006039
vt 0.562500 0.214286
vt 0.598214 0.214286
vt 0.598214 0.250000
vt 0.562500 0.250000
vt 0.526786 0.250000
vt 0.526786 0.285714
vt 0.075893 1.000000
vt 0.040179 1.000000
vt 0.040179 0.785714
vt 0.075893 0.785714
vt 0.933036 0.571429
vt 0.933036 0.785714
vn 0.0000 0.0000 -1.0000
vn -0.7071 0.7071 0.0000
vn 0.0000 -1.0000 -0.0000
vn 1.0000 0.0000 0.0000
vn 0.0000 0.0000 1.0000
vn 0.0000 0.9919 0.1271
vn 0.0000 -0.9873 0.1590
vn 0.1590 -0.9873 0.0000
vn 0.0000 -0.9909 0.1343
vn -1.0000 0.0000 0.0000
vn -0.1343 -0.9909 0.0000
vn 0.9571 -0.2898 0.0000
vn 0.0000 -0.2898 0.9571
vn 0.0000 0.2898 -0.9571
vn 0.1343 -0.9909 0.0000
vn 0.0000 0.7071 -0.7071
vn 0.1271 0.9919 0.0000
vn 0.0000 0.9861 0.1662
vn 0.1662 0.9861 0.0000
vn 0.0000 0.9861 -0.1662
vn -0.1271 0.9919 0.0000
vn -0.9571 0.2898 0.0000
vn 0.9571 0.2898 0.0000
vn 0.7071 0.7071 0.0000
vn 0.0000 1.0000 0.0000
vn 0.0000 0.7071 0.7071
vn -0.1662 0.9861 0.0000
vn -0.9571 -0.2898 0.0000
vn 0.0000 0.2898 0.9571
vn 0.0000 -0.2898 -0.9571
vn 0.0000 -0.9873 -0.1590
vn 0.0000 -0.9909 -0.1343
vn 0.0000 0.9919 -0.1271
vn -0.1590 -0.9873 0.0000
usemtl Material
s off
f 95/1/1 91/2/1 101/3/1 102/4/1
f 73/5/2 87/6/2 110/7/2 114/8/2
f 3/9/3 88/10/3 80/11/3 1/12/3
f 6/13/1 5/14/1 65/15/1 66/16/1
f 71/17/4 6/18/4 8/19/4 72/20/4
f 109/21/5 108/22/5 112/23/5 113/24/5
f 109/21/5 113/24/5 106/25/5 105/26/5
f 9/27/6 49/28/6 51/29/6 11/30/6
f 31/31/4 11/32/4 12/33/4 32/34/4
f 88/35/1 75/36/1 85/37/1 98/38/1
f 24/39/7 60/40/7 59/41/7 23/42/7
f 22/43/8 23/42/8 59/41/8 58/44/8
f 14/45/1 13/46/1 45/47/1 46/48/1
f 54/49/9 53/50/9 13/51/9 14/52/9
f 22/53/4 19/54/4 20/55/4 23/56/4
f 69/57/10 70/58/10 7/59/10 5/60/10
f 31/61/1 29/62/1 9/63/1 11/64/1
f 5/60/10 7/59/10 68/65/10 65/66/10
f 14/52/11 15/67/11 55/68/11 54/49/11
f 13/69/10 16/70/10 48/71/10 45/72/10
f 116/73/4 109/74/4 105/75/4 115/76/4
f 114/8/2 110/7/2 112/77/2
f 66/78/12 26/79/12 27/80/12 67/81/12
f 26/82/1 25/83/1 29/62/1 31/61/1
f 29/84/10 30/85/10 10/86/10 9/87/10
f 26/79/4 31/31/4 32/34/4 27/80/4
f 68/88/13 67/89/13 27/90/13 28/91/13
f 37/92/10 40/93/10 42/94/10 41/95/10
f 46/96/4 35/97/4 36/98/4 47/99/4
f 35/100/14 33/101/14 69/102/14 71/103/14
f 101/104/3 115/105/3 4/106/3 2/107/3
f 13/51/15 53/50/15 56/108/15 16/109/15
f 46/48/1 45/47/1 33/101/1 35/100/1
f 38/110/4 43/111/4 44/112/4 39/113/4
f 16/114/5 15/115/5 47/116/5 48/117/5
f 14/118/4 46/96/4 47/99/4 15/119/4
f 75/120/10 86/121/10 87/122/10 85/123/10
f 73/5/16 98/124/16 85/125/16
f 63/126/4 54/127/4 55/128/4 64/129/4
f 62/130/5 64/131/5 55/132/5 56/133/5
f 10/134/17 50/135/17 49/28/17 9/27/17
f 51/136/4 58/137/4 59/138/4 52/139/4
f 64/140/18 62/141/18 42/142/18 44/143/18
f 44/143/19 43/144/19 63/145/19 64/140/19
f 75/120/10 103/146/10 100/147/10 86/121/10
f 61/148/10 62/149/10 56/150/10 53/151/10
f 41/152/20 61/153/20 63/145/20 43/144/20
f 12/154/21 11/30/21 51/29/21 52/155/21
f 49/156/10 50/157/10 60/158/10 57/159/10
f 33/160/22 34/161/22 70/58/22 69/57/22
f 19/162/1 17/163/1 3/164/1 1/165/1
f 6/18/4 66/78/4 67/81/4 8/19/4
f 86/166/5 100/167/5 4/168/5 3/169/5
f 113/170/10 111/171/10 107/172/10 106/173/10
f 113/170/10 112/174/10 110/175/10 111/171/10
f 35/97/23 71/17/23 72/20/23 36/98/23
f 48/117/5 47/116/5 36/176/5 34/177/5
f 76/178/4 77/179/4 79/180/4 78/181/4
f 80/182/1 81/183/1 77/184/1 76/185/1
f 76/178/4 78/181/4 82/186/4 83/187/4
f 74/188/24 79/189/24 77/190/24
f 82/191/3 2/192/3 84/193/3 83/194/3
f 1/195/10 80/196/10 84/197/10 2/198/10
f 80/182/1 76/185/1 83/199/1 84/200/1
f 78/201/5 1/202/5 2/203/5 82/204/5
f 110/175/10 87/122/10 86/121/10 111/171/10
f 73/5/25 114/8/25 99/205/25 74/188/25
f 102/206/10 101/207/10 89/208/10 93/209/10
f 99/205/26 92/210/26 96/211/26
f 97/212/4 90/213/4 91/214/4 95/215/4
f 93/216/5 89/217/5 90/218/5 97/219/5
f 91/220/3 90/221/3 89/222/3 101/223/3
f 93/216/5 97/219/5 96/224/5 92/225/5
f 97/212/4 95/215/4 94/226/4 96/227/4
f 20/55/4 19/54/4 1/228/4 102/229/4
f 88/35/1 98/38/1 81/183/1 80/182/1
f 116/230/3 111/231/3 86/232/3 3/9/3
f 39/233/4 101/234/4 2/235/4 38/236/4
f 38/236/1 37/237/1 41/238/1 43/239/1
f 94/226/4 95/215/4 78/181/4 79/180/4
f 74/188/24 99/205/24 94/240/24 79/189/24
f 102/241/3 1/242/3 78/243/3 95/244/3
f 109/21/5 93/216/5 92/225/5 108/22/5
f 99/205/26 114/8/26 108/245/26 92/210/26
f 81/246/16 98/124/16 73/5/16 74/188/16
f 40/247/10 37/237/10 4/248/10 115/249/10
f 63/250/1 61/251/1 53/252/1 54/253/1
f 100/254/3 103/255/3 104/256/3 4/257/3
f 50/258/5 52/259/5 59/260/5 60/261/5
f 51/262/1 49/263/1 57/264/1 58/265/1
f 42/142/27 62/141/27 61/153/27 41/152/27
f 40/247/5 39/233/5 44/266/5 42/267/5
f 39/233/5 40/247/5 115/249/5 101/234/5
f 65/66/28 68/65/28 28/268/28 25/269/28
f 25/269/10 28/268/10 30/85/10 29/84/10
f 45/72/10 48/71/10 34/161/10 33/160/10
f 18/270/10 116/271/10 3/272/10 17/273/10
f 34/177/29 36/176/29 72/274/29 70/275/29
f 66/16/30 65/15/30 25/83/30 26/82/30
f 3/276/4 4/277/4 104/278/4 88/279/4
f 21/280/10 24/281/10 18/270/10 17/273/10
f 28/91/5 27/90/5 32/282/5 30/283/5
f 58/44/31 57/284/31 21/285/31 22/43/31
f 24/286/5 23/287/5 20/288/5 18/289/5
f 116/290/5 18/289/5 20/288/5 102/291/5
f 22/292/1 21/293/1 17/163/1 19/162/1
f 16/109/32 56/108/32 55/68/32 15/67/32
f 30/283/5 32/282/5 12/294/5 10/295/5
f 52/155/33 50/135/33 10/134/33 12/154/33
f 21/285/34 57/284/34 60/40/34 24/39/34
f 70/275/5 72/274/5 8/296/5 7/297/5
f 7/297/5 8/296/5 67/89/5 68/88/5
f 71/103/1 69/102/1 5/14/1 6/13/1
f 107/298/3 115/299/3 105/300/3 106/301/3
f 88/35/1 104/302/1 103/303/1 75/36/1
f 2/235/1 4/248/1 37/237/1 38/236/1
f 111/304/1 116/305/1 115/306/1 107/307/1
f 116/290/3 102/291/3 93/308/3 109/309/3
f 108/245/26 114/8/26 112/77/26
f 94/240/24 99/205/24 96/211/24
f 81/246/16 74/188/16 77/190/16
f 87/6/2 73/5/2 85/125/2
