# Blender v2.91.2 OBJ File: 'barrier.blend'
# www.blender.org
mtllib barrier.mtl
o Cube
v 0.100000 12.000000 -15.520600
v 0.350000 0.000000 -15.999999
v 0.100000 12.000000 15.519401
v 0.350000 0.000000 15.999998
v -0.100000 12.000000 -15.520600
v -0.350000 0.000000 -15.999999
v -0.100000 12.000000 15.519401
v -0.350000 0.000000 15.999998
v -0.350000 0.000000 14.400000
v 0.020000 12.553497 14.819013
v -0.020000 12.553497 14.819013
v 0.350000 0.000000 14.400000
v -0.020000 12.553497 -14.897812
v 0.350000 0.000000 -14.480000
v -0.350000 0.000000 -14.480000
v 0.020000 12.553497 -14.897812
v 0.100000 0.600000 -15.520600
v -0.100000 0.600000 15.519401
v 0.100000 0.600000 15.519401
v -0.100000 0.600000 -15.520600
v 0.020000 0.646503 14.819013
v -0.020000 0.646503 14.819013
v 0.020000 0.646503 -14.897812
v -0.020000 0.646503 -14.897812
v -0.350000 0.000000 15.200000
v 0.100000 12.599999 14.743400
v -0.100000 12.599999 14.743400
v 0.350000 0.000000 15.200000
v -0.100000 0.600000 14.743400
v 0.100000 0.600000 14.743400
v -0.100000 12.599999 -14.783401
v 0.350000 0.000000 -15.239999
v -0.350000 0.000000 -15.239999
v 0.100000 12.599999 -14.783401
v 0.100000 0.600000 -14.783401
v -0.100000 0.600000 -14.783401
v 0.100000 0.600000 -15.520600
v 0.100000 0.600000 15.519401
v -0.100000 0.600000 -15.520600
v 0.100000 0.600000 13.967400
v -0.100000 0.600000 13.967400
v 0.100000 0.600000 -14.046200
v -0.100000 0.600000 -14.046200
v -0.100000 0.600000 15.519401
v 0.100000 0.600000 14.743401
v -0.100000 0.600000 14.743401
v -0.100000 0.600000 -14.783401
v 0.100000 0.600000 -14.783401
vt 0.387674 0.707687
vt 0.387674 0.513814
vt 0.397871 0.513814
vt 0.397871 0.707687
vt 0.580659 0.707687
vt 0.580659 0.513814
vt 0.673039 0.000000
vt 0.673039 0.193873
vt 0.668573 0.184180
vt 0.668573 0.000000
vt 0.004847 0.000000
vt 0.004847 0.678557
vt 0.000000 0.678557
vt 0.000000 0.000000
vt 0.663871 0.193873
vt 0.663871 0.000000
vt 0.668572 0.009694
vt 0.668572 0.193873
vt 0.387747 0.319891
vt 0.387747 0.504001
vt 0.193873 0.504001
vt 0.193873 0.319891
vt 0.747828 0.321443
vt 0.747828 0.513814
vt 0.567788 0.513814
vt 0.567788 0.321443
vt 0.184664 0.000000
vt 0.184664 0.678557
vt 0.009694 0.678557
vt 0.009694 0.000000
vt 0.387673 0.707687
vt 0.193873 0.707687
vt 0.194612 0.630138
vt 0.386910 0.630138
vt 0.658209 0.513814
vt 0.696983 0.513814
vt 0.696983 0.693855
vt 0.658209 0.693855
vt 0.677505 0.193873
vt 0.677505 0.000000
vt 0.678198 0.077549
vt 0.678198 0.116324
vt 0.189269 0.000000
vt 0.189269 0.678557
vt 0.659170 0.000000
vt 0.659170 0.192409
vt 0.581620 0.191748
vt 0.581620 0.000831
vt 0.567788 0.321443
vt 0.567788 0.513814
vt 0.387747 0.513814
vt 0.387747 0.321443
vt 0.400061 0.077549
vt 0.394902 0.000000
vt 0.574943 0.000000
vt 0.569783 0.077549
vt 0.201244 0.077549
vt 0.201244 0.077549
vt 0.200551 0.000000
vt 0.205711 0.077549
vt 0.395360 0.077549
vt 0.395360 0.077549
vt 0.380592 0.000000
vt 0.375432 0.077549
vt 0.581620 0.126018
vt 0.581620 0.126018
vt 0.581620 0.319891
vt 0.581620 0.319891
vt 0.193873 0.504411
vt 0.193873 0.504411
vt 0.193873 0.509113
vt 0.193873 0.509113
vt 0.193873 0.499945
vt 0.193873 0.499945
vt 0.193873 0.504411
vt 0.193873 0.504411
vt 0.581620 0.126018
vt 0.581620 0.126018
vt 0.581620 0.319891
vt 0.581620 0.319891
vt 0.380134 0.077549
vt 0.380134 0.077549
vt 0.193873 0.509113
vt 0.193873 0.509113
vt 0.193873 0.513814
vt 0.193873 0.513814
vt 0.663871 0.000000
vt 0.663871 0.184180
vt 0.659170 0.193873
vt 0.659170 0.000000
vt 0.386910 0.591363
vt 0.194612 0.591363
vt 0.193873 0.513814
vt 0.387673 0.513814
vt 0.574249 0.077549
vt 0.574249 0.077549
vt 0.193873 0.495479
vt 0.193873 0.495479
vt 0.193873 0.499945
vt 0.193873 0.499945
vt 0.673039 0.193873
vt 0.673039 0.009694
vt 0.677505 0.000000
vt 0.677505 0.193873
vt 0.193873 0.000000
vt 0.193873 0.678557
vt 0.387747 0.513814
vt 0.193873 0.513814
vt 0.580659 0.705392
vt 0.580659 0.514475
vt 0.658209 0.513814
vt 0.658209 0.706223
vt 0.193873 0.319891
vt 0.196778 0.077549
vt 0.198478 0.319891
vt 0.572411 0.319891
vt 0.577016 0.319891
vt 0.387747 0.319891
vt 0.390659 0.077549
vt 0.392594 0.319891
vt 0.378053 0.319891
vt 0.382900 0.319891
vt 0.747828 0.321443
vt 0.757806 0.563785
vt 0.757806 0.757658
vt 0.747828 1.000000
vt 0.578716 0.077549
vt 0.581620 0.319891
vt 0.384835 0.077549
vt 0.387747 0.319891
vt 0.757806 0.321443
vt 0.767576 0.563785
vt 0.767576 0.757658
vt 0.757806 1.000000
vt 0.203082 0.319891
vt 0.397441 0.319891
vn 0.0000 0.7911 0.6117
vn 0.0000 0.0000 1.0000
vn -1.0000 0.0000 0.0000
vn 0.0000 -1.0000 0.0000
vn 1.0000 0.0000 0.0000
vn 0.0000 0.0000 -1.0000
vn 0.6869 0.0000 -0.7268
vn 0.0000 1.0000 0.0000
vn 0.0000 -0.9264 0.3765
vn -0.8195 0.0000 0.5730
vn -0.5025 0.8645 0.0000
vn 0.5025 0.8645 0.0000
vn -0.6869 0.0000 -0.7268
vn 0.0000 -0.8518 -0.5239
vn 0.0000 0.7756 -0.6312
vn 0.8195 0.0000 0.5730
vn 0.9231 0.3846 0.0000
vn -0.9231 0.3846 0.0000
vn 0.0000 0.6252 0.7805
vn 0.0000 0.6242 -0.7813
usemtl Material
s off
f 26/1/1 27/2/1 7/3/1 3/4/1
f 19/5/2 3/4/2 7/3/2 18/6/2
f 36/7/3 31/8/3 5/9/3 20/10/3
f 25/11/4 28/12/4 4/13/4 8/14/4
f 30/15/5 26/16/5 3/17/5 19/18/5
f 20/19/6 5/20/6 1/21/6 17/22/6
f 23/23/5 16/24/5 10/25/5 21/26/5
f 15/27/4 14/28/4 12/29/4 9/30/4
f 29/31/7 27/32/7 11/33/7 22/34/7
f 16/35/8 13/36/8 11/37/8 10/38/8
f 34/39/9 31/40/9 13/41/9 16/42/9
f 33/43/4 32/44/4 14/28/4 15/27/4
f 35/45/10 34/46/10 16/47/10 23/48/10
f 22/49/3 11/50/3 13/51/3 24/52/3
f 41/53/11 22/54/11 24/55/11 43/56/11
f 48/57/12 35/58/12 23/59/12 42/60/12
f 46/61/11 29/62/11 22/54/11 41/53/11
f 42/60/12 23/59/12 21/63/12 40/64/12
f 39/65/2 20/66/2 17/67/2 37/68/2
f 45/69/2 30/70/2 19/71/2 38/72/2
f 47/73/2 36/74/2 20/75/2 39/76/2
f 38/77/2 19/78/2 18/79/2 44/80/2
f 40/64/12 21/63/12 30/81/12 45/82/12
f 44/83/4 18/84/4 29/85/4 46/86/4
f 18/87/3 7/88/3 27/89/3 29/90/3
f 21/91/13 10/92/13 26/93/13 30/94/13
f 9/30/4 12/29/4 28/12/4 25/11/4
f 10/92/14 11/33/14 27/32/14 26/93/14
f 43/56/11 24/55/11 36/95/11 47/96/11
f 37/97/2 17/98/2 35/99/2 48/100/2
f 17/101/5 1/102/5 34/103/5 35/104/5
f 6/105/4 2/106/4 32/44/4 33/43/4
f 1/21/15 5/20/15 31/107/15 34/108/15
f 24/109/16 13/110/16 31/111/16 36/112/16
f 2/113/17 37/114/17 48/57/17 32/115/17
f 15/116/18 43/56/18 47/96/18 33/117/18
f 8/118/18 44/119/18 46/61/18 25/120/18
f 12/121/17 40/64/17 45/82/17 28/122/17
f 4/123/19 38/124/19 44/125/19 8/126/19
f 33/117/18 47/96/18 39/127/18 6/128/18
f 28/122/17 45/82/17 38/129/17 4/130/17
f 6/131/20 39/132/20 37/133/20 2/134/20
f 14/135/17 42/60/17 40/64/17 12/121/17
f 25/120/18 46/61/18 41/53/18 9/136/18
f 32/115/17 48/57/17 42/60/17 14/135/17
f 9/136/18 41/53/18 43/56/18 15/116/18
