# Blender v2.91.2 OBJ File: 'sword2.blend'
# www.blender.org
mtllib sword2.mtl
o Cube
v 0.055168 0.537297 0.000000
v 0.055168 -0.375584 0.000000
v -0.083495 0.668787 -0.011940
v -0.083495 -0.375584 -0.011940
v -0.083495 0.668787 0.011940
v -0.083495 -0.375584 0.011940
v 0.004918 -0.375584 -0.011940
v 0.004918 0.594217 0.011940
v 0.004918 -0.375584 0.011940
v 0.004918 0.594217 -0.011940
v -0.083495 -0.375584 0.000000
v -0.083495 0.802110 0.000000
v 0.004918 -0.375584 0.000000
v 0.004918 0.725949 0.000000
v -0.116865 -0.417349 0.016534
v -0.114919 -0.353304 0.011666
v -0.116865 -0.417349 -0.016534
v -0.114919 -0.353304 -0.011666
v 0.101145 -0.407508 0.011666
v 0.094139 -0.360553 0.011666
v 0.101145 -0.407508 -0.011666
v 0.094139 -0.360553 -0.011666
v 0.061613 -0.405293 0.016534
v 0.061613 -0.405293 -0.016534
v 0.091590 -0.404345 0.012400
v 0.091590 -0.404345 -0.012400
v 0.052592 -0.405578 0.000000
v 0.094745 -0.404245 0.000000
v 0.055125 -0.405498 -0.008267
v 0.055125 -0.405498 0.008267
v 0.052592 -0.405578 -0.004133
v 0.094745 -0.404245 -0.006200
v 0.052592 -0.405578 0.004133
v 0.094745 -0.404245 0.006200
v 0.070768 -0.510386 0.016534
v 0.070768 -0.510386 -0.016534
v 0.100746 -0.509439 -0.012400
v 0.100746 -0.509439 0.012400
v 0.103901 -0.509339 -0.006200
v 0.103901 -0.509339 0.000000
v 0.061747 -0.510672 0.000000
v 0.064280 -0.510592 -0.008267
v 0.061747 -0.510672 -0.004133
v 0.064280 -0.510592 0.008267
v 0.103901 -0.509339 0.006200
v 0.062213 -0.510657 0.004133
v 0.067509 -0.572871 -0.016534
v 0.097486 -0.571923 -0.012400
v 0.097486 -0.571923 0.012400
v 0.100641 -0.571823 -0.006200
v 0.100641 -0.571823 0.000000
v 0.058488 -0.573156 0.000000
v 0.061021 -0.573076 -0.008267
v 0.058488 -0.573156 -0.004133
v 0.061021 -0.573076 0.008267
v 0.100641 -0.571823 0.006200
v 0.060873 -0.573081 0.004133
v 0.067509 -0.572871 0.016534
v -0.038866 -0.745273 0.015567
v -0.038866 -0.401743 0.015567
v -0.038866 -0.745273 -0.015567
v -0.038866 -0.401743 -0.015567
v -0.008830 -0.745273 0.015567
v -0.008830 -0.401743 0.015567
v -0.008830 -0.745273 -0.015567
v -0.008830 -0.401743 -0.015567
v -0.045878 -0.745273 -0.000000
v -0.045878 -0.401743 -0.000000
v -0.001818 -0.745273 -0.000000
v -0.001818 -0.401743 -0.000000
v -0.045878 -0.401743 -0.007784
v -0.001818 -0.745273 -0.007784
v -0.045878 -0.745273 -0.007784
v -0.001818 -0.401743 -0.007784
v -0.045878 -0.745273 0.007784
v -0.001818 -0.401743 0.007784
v -0.045878 -0.401743 0.007784
v -0.001818 -0.745273 0.007784
v -0.116865 -0.367383 0.016534
v -0.116865 -0.367383 -0.016534
v 0.101145 -0.367599 -0.011666
v 0.101145 -0.367599 0.011666
v 0.086950 -0.417349 -0.016534
v 0.086570 -0.353304 -0.011666
v 0.086950 -0.417349 0.016534
v 0.086570 -0.353304 0.011666
v 0.086950 -0.367383 0.016534
v 0.086950 -0.367383 -0.016534
v -0.050508 -0.581211 0.018597
v -0.050508 -0.567510 0.018597
v -0.050508 -0.581211 -0.018597
v -0.050508 -0.567510 -0.018597
v 0.002037 -0.581211 0.018597
v 0.002037 -0.567510 0.018597
v 0.002037 -0.581211 -0.018597
v 0.002037 -0.567510 -0.018597
v -0.104894 -0.245149 0.016534
v -0.104894 0.287050 0.016534
v -0.104894 -0.245149 -0.016534
v -0.104894 0.287050 -0.016534
v -0.044011 -0.366671 0.016534
v -0.044011 0.384227 0.016534
v -0.044011 -0.366671 -0.016534
v -0.044011 0.384227 -0.016534
vt 0.161819 1.000000
vt 0.161819 0.177536
vt 0.236411 0.113708
vt 0.236411 0.999420
vt 0.043614 0.000000
vt 0.043614 0.822465
vt 0.000000 0.774509
vt 0.000000 0.000318
vt 0.118206 0.000579
vt 0.118205 0.886286
vt 0.118206 0.999680
vt 0.118206 0.225494
vt 0.042395 0.934830
vt 0.535676 0.552226
vt 0.535676 0.477187
vt 0.545823 0.477187
vt 0.545823 0.552226
vt 0.545823 0.434538
vt 0.339142 0.999802
vt 0.339142 0.113174
vt 0.349285 0.000000
vt 0.349285 0.999817
vt 0.116986 1.000000
vt 0.359428 0.113205
vt 0.359428 0.999832
vt 0.160600 0.065170
vt 0.555969 0.477187
vt 0.555969 0.552226
vt 0.235192 0.000000
vt 0.471575 0.489045
vt 0.475667 0.477172
vt 0.495487 0.477196
vt 0.499667 0.489079
vt 0.459368 0.356653
vt 0.471575 0.356734
vt 0.465428 0.363168
vt 0.459453 0.369125
vt 0.583718 0.325850
vt 0.583718 0.331900
vt 0.563891 0.331900
vt 0.563891 0.325850
vt 0.459368 0.012735
vt 0.471575 0.012654
vt 0.471575 0.182650
vt 0.459368 0.184694
vt 0.471575 0.304187
vt 0.475712 0.291715
vt 0.495540 0.291715
vt 0.499677 0.304187
vt 0.447322 0.540598
vt 0.447322 0.369389
vt 0.467149 0.369389
vt 0.467149 0.540598
vt 0.556891 0.381539
vt 0.557014 0.291968
vt 0.563891 0.292045
vt 0.563768 0.381617
vt 0.442720 0.422299
vt 0.447321 0.511702
vt 0.421595 0.511633
vt 0.416994 0.422230
vt 0.520753 0.487097
vt 0.520753 0.576485
vt 0.515484 0.576542
vt 0.515484 0.487154
vt 0.499677 0.381186
vt 0.504277 0.291783
vt 0.530004 0.291715
vt 0.525403 0.381118
vt 0.420507 0.514383
vt 0.424020 0.545384
vt 0.416994 0.539869
vt 0.436314 0.511702
vt 0.434558 0.547538
vt 0.431045 0.547538
vt 0.431045 0.511702
vt 0.510215 0.576542
vt 0.510215 0.487154
vt 0.546404 0.381513
vt 0.546537 0.291936
vt 0.550048 0.291937
vt 0.549925 0.381509
vt 0.553560 0.291938
vt 0.553437 0.381510
vt 0.441583 0.514383
vt 0.445096 0.539869
vt 0.438070 0.545384
vt 0.535676 0.381609
vt 0.535799 0.292037
vt 0.542968 0.291965
vt 0.542845 0.381536
vt 0.425776 0.511702
vt 0.427532 0.547538
vt 0.504946 0.487154
vt 0.504946 0.576542
vt 0.499677 0.576485
vt 0.499677 0.487097
vt 0.542968 0.434458
vt 0.546483 0.434457
vt 0.510215 0.434085
vt 0.504946 0.434085
vt 0.499677 0.434028
vt 0.535799 0.434530
vt 0.553560 0.434431
vt 0.557014 0.434462
vt 0.550048 0.434430
vt 0.515484 0.434085
vt 0.504277 0.434028
vt 0.530004 0.433959
vt 0.520753 0.434028
vt 0.447321 0.369457
vt 0.421595 0.369389
vt 0.563891 0.434538
vt 0.445096 0.575704
vt 0.438071 0.581219
vt 0.434558 0.581345
vt 0.431045 0.583372
vt 0.427533 0.583372
vt 0.424020 0.581219
vt 0.416994 0.575704
vt 0.420507 0.550220
vt 0.425776 0.547538
vt 0.431045 0.547538
vt 0.436314 0.547538
vt 0.441583 0.550220
vt 0.555671 0.291659
vt 0.555671 0.000016
vt 0.562126 0.000293
vt 0.562126 0.291936
vt 0.503626 0.291518
vt 0.503626 0.000178
vt 0.528966 0.000376
vt 0.528966 0.291715
vt 0.503626 0.000376
vt 0.503626 0.291716
vt 0.496915 0.291340
vt 0.496915 0.000000
vt 0.471575 0.291536
vt 0.471575 0.000196
vt 0.575813 0.553967
vt 0.575813 0.516572
vt 0.582428 0.522523
vt 0.582428 0.548015
vt 0.575813 0.516572
vt 0.575813 0.479134
vt 0.582428 0.485092
vt 0.582428 0.510614
vt 0.562584 0.516572
vt 0.562584 0.479134
vt 0.569199 0.479134
vt 0.569199 0.516572
vt 0.562584 0.553967
vt 0.562584 0.516572
vt 0.569198 0.516572
vt 0.569198 0.553967
vt 0.575355 0.000000
vt 0.575355 0.291925
vt 0.568740 0.291925
vt 0.568740 0.000000
vt 0.542447 0.291643
vt 0.542447 0.000000
vt 0.549059 0.000008
vt 0.549059 0.291651
vt 0.535676 0.000000
vt 0.535676 0.291340
vt 0.555969 0.548015
vt 0.555969 0.522523
vt 0.555969 0.510614
vt 0.555969 0.485092
vt 0.535676 0.291904
vt 0.535676 0.000261
vt 0.562126 0.291925
vt 0.562126 0.000000
vt 0.416995 0.012406
vt 0.416995 0.184365
vt 0.583718 0.291936
vt 0.563891 0.291936
vt 0.416995 0.356982
vt 0.425607 0.369389
vt 0.471575 0.531464
vt 0.499667 0.531498
vt 0.416995 0.185023
vt 0.459368 0.184694
vt 0.425607 0.000000
vt 0.459453 0.000263
vt 0.447322 0.546932
vt 0.467149 0.546932
vt 0.471575 0.477172
vt 0.499677 0.477172
vt 0.465428 0.006220
vt 0.471575 0.186739
vt 0.563890 0.331914
vt 0.575522 0.331900
vt 0.575522 0.363497
vt 0.563890 0.363511
vt 0.520753 0.434118
vt 0.532372 0.434028
vt 0.532372 0.478360
vt 0.520753 0.478450
vt 0.532396 0.554479
vt 0.520753 0.554479
vt 0.520753 0.522871
vt 0.532396 0.522871
vt 0.520753 0.478450
vt 0.532372 0.478540
vt 0.532372 0.522871
vt 0.520753 0.522781
vt 0.587577 0.434538
vt 0.587577 0.479134
vt 0.555969 0.479134
vt 0.555969 0.434538
vt 0.468059 0.576146
vt 0.468059 0.531498
vt 0.499667 0.531498
vt 0.499667 0.576146
vt 0.387520 0.105536
vt 0.387520 0.557353
vt 0.359428 0.557319
vt 0.359428 0.105503
vt 0.287777 0.533363
vt 0.287777 0.082016
vt 0.339143 0.000000
vt 0.339143 0.636818
vt 0.416994 0.000000
vt 0.416994 0.638099
vt 0.388893 0.638099
vt 0.388893 0.000000
vt 0.287777 0.000000
vt 0.287777 0.636819
vt 0.236411 0.554804
vt 0.236411 0.103458
vt 0.360801 0.000000
vt 0.360801 0.637483
vt 0.388893 0.637516
vn 0.0000 0.0000 1.0000
vn 0.2312 0.0000 -0.9729
vn 0.0000 0.0000 -1.0000
vn 0.2312 0.0000 0.9729
vn 0.3210 0.0855 -0.9432
vn 0.0000 -1.0000 0.0000
vn -1.0000 0.0000 0.0000
vn 0.0763 0.0895 -0.9931
vn 0.3210 0.0855 0.9432
vn 0.0763 0.0895 0.9931
vn -0.9906 0.1369 0.0000
vn 0.3087 0.3148 -0.8976
vn 0.7091 0.7051 0.0000
vn 0.0000 0.3268 0.9451
vn 0.5698 -0.8218 -0.0000
vn 0.0000 1.0000 0.0000
vn -0.7840 -0.0683 -0.6170
vn 0.1362 0.0119 -0.9906
vn 0.8881 0.0774 -0.4531
vn 0.1362 0.0119 0.9906
vn -0.0316 0.9995 0.0000
vn 0.9962 0.0868 0.0000
vn -0.9945 -0.0888 0.0562
vn -0.9962 -0.0868 0.0000
vn -0.8497 -0.0740 -0.5221
vn -0.7840 -0.0683 0.6170
vn 0.8881 0.0774 0.4531
vn -0.8706 -0.0778 0.4857
vn -0.9654 0.0356 0.2583
vn 0.9986 -0.0521 0.0000
vn 0.8906 -0.0465 0.4524
vn -0.7865 0.0410 0.6162
vn -0.8522 0.0445 -0.5213
vn -0.9986 0.0521 0.0000
vn -0.9449 0.0348 0.3255
vn 0.1368 -0.0071 0.9906
vn 0.8906 -0.0465 -0.4524
vn 0.1368 -0.0071 -0.9906
vn -0.7865 0.0410 -0.6162
vn 0.0316 -0.9995 0.0000
vn -0.7430 0.0000 -0.6693
vn 0.7430 0.0000 0.6693
vn 1.0000 0.0000 0.0000
vn 0.7430 0.0000 -0.6693
vn -0.7430 0.0000 0.6693
vn 0.3244 0.0000 -0.9459
vn 0.3244 0.0000 0.9459
vn 0.6916 0.7222 0.0000
vn 0.3087 0.3148 0.8976
vn 0.0000 0.3268 -0.9451
vn -0.8941 -0.4479 0.0000
vn -0.8474 0.5309 0.0000
usemtl マテリアル
s off
f 9/1/1 8/2/1 5/3/1 6/4/1
f 7/5/2 10/6/2 1/7/2 2/8/2
f 4/9/3 3/10/3 10/6/3 7/5/3
f 2/11/4 1/12/4 8/2/4 9/1/4
f 1/7/5 10/6/5 14/13/5
f 4/14/6 7/15/6 13/16/6 11/17/6
f 7/15/6 2/18/6 13/16/6
f 6/19/7 5/20/7 12/21/7 11/22/7
f 10/6/8 3/10/8 12/23/8 14/13/8
f 11/22/7 12/21/7 3/24/7 4/25/7
f 1/12/9 14/26/9 8/2/9
f 11/17/6 13/16/6 9/27/6 6/28/6
f 13/16/6 2/18/6 9/27/6
f 14/26/10 12/29/10 5/3/10 8/2/10
f 79/30/11 16/31/11 18/32/11 80/33/11
f 88/34/12 84/35/12 22/36/12 81/37/12
f 81/38/13 22/39/13 20/40/13 82/41/13
f 87/42/14 86/43/14 16/44/14 79/45/14
f 83/46/15 21/47/15 19/48/15 85/49/15
f 84/50/16 18/51/16 16/52/16 86/53/16
f 42/54/17 29/55/17 24/56/17 36/57/17
f 36/58/18 24/59/18 26/60/18 37/61/18
f 37/62/19 26/63/19 32/64/19 39/65/19
f 38/66/20 25/67/20 23/68/20 35/69/20
f 25/70/21 30/71/21 23/72/21
f 32/73/21 31/74/21 27/75/21 28/76/21
f 39/65/22 32/64/22 28/77/22 40/78/22
f 46/79/23 33/80/23 27/81/23 41/82/23
f 41/82/24 27/81/24 31/83/24 43/84/24
f 26/85/21 24/86/21 29/87/21
f 43/84/25 31/83/25 29/55/25 42/54/25
f 35/88/26 23/89/26 30/90/26 44/91/26
f 34/92/21 33/93/21 30/71/21 25/70/21
f 45/94/27 34/95/27 25/96/27 38/97/27
f 26/85/21 29/87/21 31/74/21 32/73/21
f 40/78/22 28/77/22 34/95/22 45/94/22
f 28/76/21 27/75/21 33/93/21 34/92/21
f 44/91/28 30/90/28 33/80/28 46/79/28
f 55/98/29 44/91/29 46/79/29 57/99/29
f 51/100/30 40/78/30 45/94/30 56/101/30
f 56/101/31 45/94/31 38/97/31 49/102/31
f 58/103/32 35/88/32 44/91/32 55/98/32
f 54/104/33 43/84/33 42/54/33 53/105/33
f 52/106/34 41/82/34 43/84/34 54/104/34
f 57/99/35 46/79/35 41/82/35 52/106/35
f 50/107/30 39/65/30 40/78/30 51/100/30
f 49/108/36 38/66/36 35/69/36 58/109/36
f 48/110/37 37/62/37 39/65/37 50/107/37
f 47/111/38 36/58/38 37/61/38 48/112/38
f 53/105/39 42/54/39 36/57/39 47/113/39
f 58/114/40 55/115/40 57/116/40 52/117/40 54/118/40 53/119/40 47/120/40 48/121/40 50/122/40 51/123/40 56/124/40 49/125/40
f 73/126/41 71/127/41 62/128/41 61/129/41
f 61/130/3 62/131/3 66/132/3 65/133/3
f 78/134/42 76/135/42 64/136/42 63/137/42
f 63/137/1 64/136/1 60/138/1 59/139/1
f 75/140/6 78/141/6 63/142/6 59/143/6
f 76/144/16 77/145/16 60/146/16 64/147/16
f 74/148/16 71/149/16 68/150/16 70/151/16
f 73/152/6 72/153/6 69/154/6 67/155/6
f 72/156/43 74/157/43 70/158/43 69/159/43
f 75/160/7 77/161/7 68/162/7 67/163/7
f 65/133/44 66/132/44 74/164/44 72/165/44
f 61/166/6 65/167/6 72/153/6 73/152/6
f 66/168/16 62/169/16 71/149/16 74/148/16
f 67/163/7 68/162/7 71/127/7 73/126/7
f 59/170/45 60/171/45 77/161/45 75/160/45
f 70/151/16 68/150/16 77/145/16 76/144/16
f 67/155/6 69/154/6 78/141/6 75/140/6
f 69/159/43 70/158/43 76/172/43 78/173/43
f 85/174/1 87/42/1 79/45/1 15/175/1
f 21/176/43 81/38/43 82/41/43 19/177/43
f 83/178/46 88/34/46 81/37/46 21/179/46
f 15/180/7 79/30/7 80/33/7 17/181/7
f 17/182/3 80/183/3 88/34/3 83/178/3
f 19/184/47 82/185/47 87/42/47 85/174/47
f 22/186/48 84/50/48 86/53/48 20/187/48
f 17/188/6 83/46/6 85/49/6 15/189/6
f 82/185/49 20/190/49 86/43/49 87/42/49
f 80/183/50 18/191/50 84/35/50 88/34/50
f 89/192/7 90/193/7 92/194/7 91/195/7
f 91/196/3 92/197/3 96/198/3 95/199/3
f 95/200/43 96/201/43 94/202/43 93/203/43
f 93/204/1 94/205/1 90/206/1 89/207/1
f 91/208/6 95/209/6 93/210/6 89/211/6
f 96/212/16 92/213/16 90/214/16 94/215/16
f 97/216/7 98/217/7 100/218/7 99/219/7
f 99/220/3 100/221/3 104/222/3 103/223/3
f 103/224/43 104/225/43 102/226/43 101/227/43
f 101/228/1 102/229/1 98/230/1 97/231/1
f 99/219/51 103/232/51 101/227/51 97/216/51
f 104/233/52 100/218/52 98/217/52 102/234/52
